<?xml version="1.0" encoding="UTF-8"?>
<svg id="Capa_2" data-name="Capa 2" xmlns="http://www.w3.org/2000/svg" viewBox="0 0 459.26 114.2">
  <defs>
    <style>
      .cls-1 {
        fill: #d7b590;
      }

      .cls-2 {
        fill: #5c5c5c;
      }
    </style>
  </defs>
  <g id="Capa_1-2" data-name="Capa 1">
    <g>
      <path class="cls-1" d="M208.84,19.74l-.03-16.77-8.2,14.17h-.7l-8.2-14.11v16.72h-1.4V.14h1.2l8.76,15.15L209.03.14h1.18l.03,19.6h-1.4Z"/>
      <path class="cls-1" d="M229.19,14.22h-11.37l-2.49,5.52h-1.54L222.81.14h1.43l9.02,19.6h-1.54l-2.52-5.52ZM228.66,13.02l-5.15-11.31-5.12,11.31h10.28Z"/>
      <path class="cls-1" d="M241.71,12.99v6.75h-1.43v-6.75L232.39.14h1.57l7.08,11.54L248.12.14h1.48l-7.9,12.85Z"/>
      <path class="cls-1" d="M250.45,9.94c0-5.68,4.34-9.94,10.19-9.94s10.19,4.23,10.19,9.94-4.37,9.94-10.19,9.94-10.19-4.26-10.19-9.94ZM269.37,9.94c0-4.96-3.75-8.62-8.74-8.62s-8.76,3.67-8.76,8.62,3.75,8.62,8.76,8.62,8.74-3.67,8.74-8.62Z"/>
    </g>
    <g>
      <path class="cls-1" d="M216.98,52.75c6.82,0,12.14,1.78,15.95,5.33,3.81,3.56,5.72,8.45,5.72,14.69,0,4.91-1.03,9.75-3.08,14.52-2.05,4.77-4.88,9.06-8.47,12.87-3.59,3.81-7.75,6.86-12.49,9.13-4.73,2.27-9.74,3.41-15.01,3.41-6.67,0-11.99-1.76-15.95-5.28-3.96-3.52-5.94-8.47-5.94-14.85,0-4.99,1.04-9.83,3.14-14.52,2.09-4.69,4.95-8.96,8.58-12.81,3.63-3.85,7.81-6.89,12.54-9.13,4.73-2.24,9.74-3.36,15.02-3.36ZM215.22,54.73c-3.08,0-5.94,1.15-8.58,3.46-2.64,2.31-4.93,5.41-6.88,9.29-1.94,3.89-3.43,8.21-4.46,12.98-1.03,4.77-1.54,9.53-1.54,14.3,0,5.72.73,9.81,2.2,12.26,1.47,2.46,3.26,3.68,5.39,3.68,3.23,0,6.12-1.21,8.69-3.63,2.57-2.42,4.78-5.61,6.65-9.57s3.32-8.32,4.35-13.09c1.03-4.77,1.54-9.46,1.54-14.08,0-5.65-.7-9.66-2.09-12.05-1.39-2.38-3.15-3.57-5.28-3.57Z"/>
      <path class="cls-1" d="M281.99,53.08l-17.27,58.08h-15.51l13.75-46.42c-1.91.73-3.98,1.47-6.21,2.2-2.24.73-5.04,1.54-8.42,2.42l.33-2.31c5.35-1.39,9.94-2.86,13.75-4.4,3.81-1.54,7.09-3.15,9.84-4.84,2.75-1.69,5.26-3.26,7.54-4.73h2.2Z"/>
    </g>
    <g>
      <path class="cls-2" d="M350.71,74.27c2.1,0,3.75.39,4.96,1.18,1.2.78,1.81,1.86,1.81,3.23,0,1.06-.35,2.09-1.05,3.07-.7.98-1.6,1.91-2.71,2.79-1.11.88-2.3,1.72-3.57,2.5-1.27.78-2.49,1.52-3.65,2.21-1.16.69-2.15,1.32-2.96,1.91.7,0,1.48.1,2.33.29.85.2,1.75.39,2.69.59.94.2,1.84.29,2.71.29,1.06,0,1.92-.17,2.58-.5.66-.34.99-.84.99-1.51,0-.84-.5-1.53-1.51-2.06l.46-.55c.81.42,1.4.92,1.76,1.49.36.57.55,1.27.55,2.08,0,.9-.22,1.77-.65,2.62-.43.85-1.13,1.55-2.08,2.1-.95.55-2.21.82-3.78.82-.9,0-1.78-.1-2.65-.29-.87-.2-1.75-.4-2.65-.61s-1.88-.33-2.94-.36c-1.06-.06-1.95,0-2.67.19-.71.18-1.5.46-2.37.82l.21-.88c.59-.48,1.36-1.06,2.31-1.74.95-.69,2-1.46,3.13-2.33,1.13-.87,2.26-1.8,3.38-2.79,1.12-.99,2.16-2.04,3.11-3.13s1.71-2.21,2.27-3.36c.56-1.15.84-2.31.84-3.49s-.28-1.97-.84-2.54c-.56-.57-1.34-.86-2.35-.86-.81,0-1.65.18-2.5.55-.85.36-1.64.86-2.35,1.49s-1.29,1.33-1.72,2.1c-.43.77-.65,1.56-.65,2.37,0,.67.19,1.18.57,1.51.38.34,1,.5,1.87.5.78,0,1.46-.15,2.04-.44.57-.29,1.18-.72,1.83-1.28l.5.59c-.78.73-1.58,1.25-2.39,1.55-.81.31-1.57.46-2.27.46-.45,0-.92-.08-1.41-.23-.49-.15-.9-.43-1.24-.84-.34-.41-.5-1-.5-1.79,0-.92.27-1.84.8-2.75.53-.91,1.27-1.74,2.21-2.5.94-.76,2.05-1.36,3.34-1.81,1.29-.45,2.7-.67,4.24-.67Z"/>
      <path class="cls-2" d="M375.83,74.27c2.6,0,4.63.68,6.09,2.04s2.18,3.23,2.18,5.61c0,1.88-.39,3.72-1.18,5.54-.78,1.82-1.86,3.46-3.23,4.91-1.37,1.46-2.96,2.62-4.77,3.49-1.81.87-3.72,1.3-5.73,1.3-2.55,0-4.58-.67-6.09-2.02-1.51-1.34-2.27-3.23-2.27-5.67,0-1.9.4-3.75,1.2-5.54s1.89-3.42,3.28-4.89c1.39-1.47,2.98-2.63,4.79-3.49,1.81-.85,3.72-1.28,5.73-1.28ZM375.15,75.03c-1.18,0-2.27.44-3.28,1.32-1.01.88-1.88,2.06-2.62,3.55s-1.31,3.14-1.7,4.96c-.39,1.82-.59,3.64-.59,5.46,0,2.18.28,3.75.84,4.68.56.94,1.25,1.41,2.06,1.41,1.23,0,2.34-.46,3.32-1.39.98-.92,1.83-2.14,2.54-3.65.71-1.51,1.27-3.18,1.66-5,.39-1.82.59-3.61.59-5.38,0-2.16-.27-3.69-.8-4.6s-1.2-1.37-2.02-1.37Z"/>
      <path class="cls-2" d="M399.26,74.27c2.1,0,3.75.39,4.96,1.18,1.2.78,1.81,1.86,1.81,3.23,0,1.06-.35,2.09-1.05,3.07-.7.98-1.6,1.91-2.71,2.79-1.11.88-2.3,1.72-3.57,2.5-1.27.78-2.49,1.52-3.65,2.21-1.16.69-2.15,1.32-2.96,1.91.7,0,1.48.1,2.33.29.85.2,1.75.39,2.69.59.94.2,1.84.29,2.71.29,1.06,0,1.92-.17,2.58-.5.66-.34.99-.84.99-1.51,0-.84-.5-1.53-1.51-2.06l.46-.55c.81.42,1.4.92,1.76,1.49.36.57.55,1.27.55,2.08,0,.9-.22,1.77-.65,2.62-.43.85-1.13,1.55-2.08,2.1-.95.55-2.21.82-3.78.82-.9,0-1.78-.1-2.65-.29-.87-.2-1.75-.4-2.65-.61s-1.88-.33-2.94-.36c-1.06-.06-1.95,0-2.67.19-.71.18-1.5.46-2.37.82l.21-.88c.59-.48,1.36-1.06,2.31-1.74.95-.69,2-1.46,3.13-2.33,1.13-.87,2.26-1.8,3.38-2.79,1.12-.99,2.16-2.04,3.11-3.13s1.71-2.21,2.27-3.36c.56-1.15.84-2.31.84-3.49s-.28-1.97-.84-2.54c-.56-.57-1.34-.86-2.35-.86-.81,0-1.65.18-2.5.55-.85.36-1.64.86-2.35,1.49s-1.29,1.33-1.72,2.1c-.43.77-.65,1.56-.65,2.37,0,.67.19,1.18.57,1.51.38.34,1,.5,1.87.5.78,0,1.46-.15,2.04-.44.57-.29,1.18-.72,1.83-1.28l.5.59c-.78.73-1.58,1.25-2.39,1.55-.81.31-1.57.46-2.27.46-.45,0-.92-.08-1.41-.23-.49-.15-.9-.43-1.24-.84-.34-.41-.5-1-.5-1.79,0-.92.27-1.84.8-2.75.53-.91,1.27-1.74,2.21-2.5.94-.76,2.05-1.36,3.34-1.81,1.29-.45,2.7-.67,4.24-.67Z"/>
      <path class="cls-2" d="M416.73,74.65c1.23,0,2.36.15,3.38.44,1.02.29,2.06.6,3.13.92,1.06.32,2.24.51,3.53.57.81.03,1.57-.06,2.27-.27.7-.21,1.33-.68,1.89-1.41h1.13c-1.32,1.54-2.56,2.98-3.72,4.3-1.16,1.33-2.25,2.63-3.25,3.91-1.01,1.27-1.93,2.58-2.77,3.93-.84,1.34-1.59,2.79-2.25,4.35-.66,1.55-1.24,3.28-1.74,5.19-.2.73-.33,1.27-.4,1.64s-.12.65-.15.86c-.03.21-.08.48-.17.82-.17.78-.57,1.46-1.2,2.04-.63.57-1.48.86-2.54.86-.87,0-1.49-.19-1.87-.57s-.58-.86-.61-1.45c-.03-.59.03-1.2.17-1.85.36-1.54,1.08-3.14,2.14-4.81,1.06-1.67,2.32-3.32,3.78-4.98,1.46-1.65,2.97-3.27,4.56-4.85,1.58-1.58,3.1-3.07,4.56-4.47s2.67-2.65,3.65-3.74l.63-.17c-1.06.7-2.03,1.34-2.9,1.91-.87.57-1.67,1.05-2.39,1.43s-1.44.67-2.14.88c-.7.21-1.43.32-2.18.32-.98,0-1.81-.11-2.5-.34-.69-.22-1.34-.44-1.95-.65-.62-.21-1.32-.31-2.1-.31-.84,0-1.56.2-2.16.59-.6.39-.9,1.02-.9,1.89,0,1.06.45,1.95,1.34,2.65.9.7,2.14,1.23,3.74,1.6l-.21.67c-1.91-.39-3.44-1.06-4.62-2-1.18-.94-1.76-2.29-1.76-4.05,0-.95.22-1.88.67-2.77.45-.9,1.16-1.63,2.12-2.21.97-.57,2.23-.86,3.8-.86Z"/>
    </g>
    <g>
      <path class="cls-2" d="M36.78,75.7c-.19.49-.44,1.19-.76,2.11-.32.92-.62,2.12-.89,3.6h-.56c.06-.26.1-.53.13-.81.03-.28.04-.53.04-.76,0-.73-.15-1.37-.46-1.92-.31-.55-.76-.98-1.34-1.29s-1.32-.46-2.2-.46c-.93,0-1.73.24-2.39.71-.66.48-.99,1.26-.99,2.34,0,.65.16,1.28.48,1.89.32.61.72,1.2,1.22,1.78.49.58,1.02,1.16,1.58,1.75.56.59,1.09,1.19,1.6,1.79.5.61.91,1.25,1.23,1.92.32.67.47,1.39.47,2.16,0,1.01-.25,1.87-.74,2.58-.49.71-1.13,1.29-1.92,1.74-.78.45-1.62.78-2.52.98s-1.75.31-2.55.31c-.88,0-1.6-.06-2.17-.17-.57-.11-1.06-.27-1.47-.46-.41-.2-.81-.42-1.21-.66-.21-.13-.39-.23-.56-.31-.17-.07-.31-.11-.42-.11-.24,0-.44.11-.59.34-.15.22-.35.62-.59,1.18h-.56c.17-.41.35-.89.53-1.43.19-.54.39-1.24.62-2.09.22-.85.47-1.92.76-3.21h.56c-.09.32-.16.68-.21,1.08-.05.4-.06.78-.04,1.13.06,1.33.47,2.34,1.25,3.04.78.7,1.88,1.05,3.32,1.05,1.27,0,2.19-.26,2.76-.78.57-.52.85-1.24.85-2.16,0-.78-.14-1.5-.43-2.16-.29-.65-.66-1.27-1.12-1.85-.46-.58-.94-1.14-1.44-1.69-.51-.55-.99-1.12-1.44-1.69-.46-.58-.83-1.2-1.11-1.88s-.42-1.4-.42-2.18c0-.95.21-1.78.62-2.48s.96-1.28,1.65-1.75,1.44-.81,2.24-1.04,1.6-.34,2.38-.34c1.1,0,2,.14,2.69.41.69.27,1.27.55,1.74.83.17.11.34.21.52.31s.31.14.41.14c.26,0,.57-.49.92-1.48h.56Z"/>
      <path class="cls-2" d="M37.45,91.71c-.58.8-.88,1.45-.89,1.95-.02.49.19.86.62,1.09s1.01.37,1.74.41l-.14.56c-.78-.04-1.46-.06-2.03-.07-.57,0-1.11-.01-1.61-.01-.43,0-.79,0-1.06.01-.28,0-.57.03-.87.07l.11-.56c.34-.09.65-.24.94-.45s.62-.51.98-.92c.36-.41.78-.94,1.25-1.6l11.68-16.44c.24.02.49.03.74.03s.48,0,.69-.03l1.12,17.61c.06.67.23,1.13.52,1.39.29.25.57.39.85.41l-.11.56c-.47-.04-1.09-.06-1.86-.07-.78,0-1.51-.01-2.2-.01-.84,0-1.63,0-2.38.01-.75,0-1.35.03-1.82.07l.11-.56c.89-.04,1.54-.2,1.92-.49.38-.29.54-.91.49-1.86l-.67-12.88.95-1.01-9.04,12.8ZM40.06,87.65h8.18l-.22.56h-8.46l.5-.56ZM48.46,73.76c.93-.73,1.7-1.38,2.3-1.96.6-.58,1.12-1.08,1.58-1.5s.94-.77,1.44-1.05c.26-.15.56-.25.9-.29s.66-.02.97.08c.31.1.54.32.69.66.22.43.21.83-.04,1.22s-.61.7-1.08.94c-.47.26-1,.48-1.61.66-.61.18-1.31.38-2.11.6-.8.22-1.75.55-2.83.98l-.2-.34Z"/>
      <path class="cls-2" d="M66.41,75.92c2.17,0,3.73.34,4.7,1.01s1.46,1.57,1.46,2.69c0,.97-.31,1.86-.94,2.67-.63.81-1.5,1.48-2.63,2s-2.45.86-3.96,1.01c2.11.09,3.69.55,4.73,1.36,1.04.81,1.57,1.82,1.57,3.01,0,.97-.23,1.83-.69,2.59s-1.1,1.39-1.93,1.9c-.83.51-1.81.9-2.93,1.16-1.12.26-2.34.39-3.67.39-.58,0-1.25-.01-2-.04-.76-.03-1.72-.04-2.9-.04-.47,0-.97,0-1.51.01-.54,0-1.06.02-1.57.03-.5,0-.92.02-1.26.04l.11-.56c.63-.04,1.13-.11,1.48-.22.35-.11.63-.34.84-.67s.39-.84.56-1.51l3.7-13.89c.15-.58.23-1.04.24-1.39,0-.34-.12-.6-.39-.76-.27-.16-.77-.25-1.5-.27l.14-.56c.34.02.75.03,1.25.04.49,0,1.01.02,1.54.03.53,0,1.02.01,1.47.01.86,0,1.6,0,2.21-.03.62-.02,1.24-.03,1.88-.03ZM61.2,85.66l.11-.48h1.99c1.06,0,1.96-.29,2.67-.87.72-.58,1.26-1.33,1.64-2.25.37-.92.56-1.89.56-2.9,0-.82-.15-1.48-.46-1.97-.31-.49-.87-.74-1.7-.74-.56,0-.96.13-1.22.39-.25.26-.48.79-.69,1.6l-3.78,14.31c-.11.41-.19.79-.22,1.15-.04.36.04.64.22.85.19.21.56.32,1.12.32,1.14,0,2.09-.27,2.86-.81.77-.54,1.35-1.26,1.75-2.16.4-.9.6-1.88.6-2.94,0-.67-.1-1.27-.31-1.79s-.54-.94-1.02-1.25c-.48-.31-1.11-.46-1.89-.46h-2.24Z"/>
      <path class="cls-2" d="M74.75,91.71c-.58.8-.88,1.45-.9,1.95-.02.49.19.86.62,1.09.43.23,1.01.37,1.73.41l-.14.56c-.79-.04-1.46-.06-2.03-.07-.57,0-1.11-.01-1.61-.01-.43,0-.78,0-1.06.01-.28,0-.57.03-.87.07l.11-.56c.34-.09.65-.24.94-.45.29-.21.62-.51.98-.92.37-.41.78-.94,1.25-1.6l11.68-16.44c.24.02.49.03.74.03s.48,0,.69-.03l1.12,17.61c.06.67.23,1.13.52,1.39s.57.39.85.41l-.11.56c-.47-.04-1.09-.06-1.86-.07-.78,0-1.51-.01-2.2-.01-.84,0-1.63,0-2.38.01-.75,0-1.35.03-1.82.07l.11-.56c.9-.04,1.54-.2,1.92-.49s.55-.91.49-1.86l-.67-12.88.95-1.01-9.04,12.8ZM77.35,87.65h8.18l-.22.56h-8.46l.5-.56Z"/>
      <path class="cls-2" d="M112.52,82.58c0,1.21-.18,2.45-.53,3.7-.36,1.25-.9,2.44-1.64,3.56-.74,1.12-1.65,2.12-2.74,3.01s-2.38,1.59-3.86,2.1c-1.48.51-3.16.77-5.03.77-.3,0-.66,0-1.08-.03-.42-.02-.89-.03-1.41-.04-.52,0-1.1-.01-1.74-.01-.43,0-.91,0-1.44.01-.53,0-1.05.02-1.54.03-.49,0-.9.02-1.22.04l.08-.56c.6-.04,1.07-.11,1.41-.22s.62-.34.83-.67.39-.84.56-1.51l3.67-13.89c.15-.54.22-.98.21-1.33,0-.35-.15-.6-.42-.77-.27-.17-.74-.27-1.41-.31l.08-.56c.34.02.76.04,1.29.06s1.08.03,1.67.03h1.64c.34-.02.77-.03,1.29-.04.52,0,1.04-.02,1.57-.03.52,0,.96-.01,1.32-.01,2.71,0,4.79.56,6.26,1.68,1.46,1.12,2.2,2.79,2.2,5.01ZM98.72,95.21c1.19,0,2.28-.26,3.26-.78s1.84-1.24,2.59-2.14c.75-.91,1.37-1.94,1.88-3.09.5-1.16.89-2.38,1.15-3.65s.39-2.56.39-3.85c0-1.72-.36-3.03-1.06-3.93s-1.87-1.36-3.47-1.36c-.47,0-.82.06-1.06.18-.24.12-.44.35-.59.69-.15.34-.32.85-.5,1.54l-3.67,14c-.15.6-.24,1.07-.28,1.43-.04.36.04.61.24.76s.57.22,1.13.22Z"/>
      <path class="cls-2" d="M114.12,89.39c0-1.23.2-2.5.59-3.81.39-1.31.95-2.56,1.68-3.75.73-1.19,1.61-2.27,2.64-3.22,1.04-.95,2.21-1.71,3.51-2.27s2.73-.84,4.26-.84c2.37,0,4.23.58,5.59,1.75,1.35,1.17,2.03,2.83,2.03,5,0,1.23-.2,2.5-.59,3.79-.39,1.3-.96,2.54-1.69,3.74-.74,1.19-1.63,2.27-2.68,3.22-1.04.95-2.22,1.71-3.51,2.27-1.3.56-2.71.84-4.24.84-2.37,0-4.23-.58-5.57-1.75-1.35-1.17-2.02-2.82-2.02-4.97ZM126.55,76c-.79,0-1.55.26-2.3.77-.75.51-1.44,1.22-2.09,2.13-.64.91-1.21,1.94-1.69,3.11-.49,1.17-.87,2.41-1.13,3.74-.27,1.33-.41,2.66-.41,4,0,1.83.29,3.26.85,4.3.57,1.04,1.29,1.55,2.17,1.55.79,0,1.55-.26,2.3-.77s1.44-1.22,2.09-2.13,1.21-1.94,1.69-3.11c.49-1.17.86-2.41,1.13-3.74.27-1.33.41-2.66.41-4,0-1.83-.29-3.26-.85-4.3-.57-1.04-1.29-1.55-2.17-1.55Z"/>
    </g>
    <g>
      <rect class="cls-1" x="307.26" y="58.92" width="152" height="3"/>
      <rect class="cls-1" x="307.26" y="111.2" width="152" height="3"/>
      <rect class="cls-1" y="58.92" width="152" height="3"/>
      <rect class="cls-1" y="111.2" width="152" height="3"/>
    </g>
  </g>
</svg>