<?xml version="1.0" encoding="UTF-8"?>
<svg id="Capa_2" xmlns="http://www.w3.org/2000/svg" version="1.1" viewBox="0 0 1218.9 510.2">
  <!-- Generator: Adobe Illustrator 29.8.3, SVG Export Plug-In . SVG Version: 2.1.1 Build 3)  -->
  <defs>
    <style>
      .st0 {
        fill: #5c5c5c;
      }
    </style>
  </defs>
  <g id="Capa_1-2">
    <g>
      <path class="st0" d="M1166,379.4l-71.1-9.5,15.8-3.7c20.8-1.2,40-9.1,60.2-13.3.2-1.9-2.1-.8-3.2-.7-3.8.4-7.8.3-11.3.7-10.5,1.3-13.2,3.5-24.2,2.2-6.2-.7-12.4-1.4-18.6-2.4-1.7-.3-6-.4-6.7-1.8,25.6-2.2,51.2-5.2,75.9-12.1v-3.9c-17.8-2.6-35.5,5.7-52.5,7-8.1.6-15.9-1.1-24-1l-1.5-2,80-8c-.8,3.5.7,7.3.7,10.7,1.7-2.4,3.5-4.9,4.8-7.8-1.1-.4-1.3-2.7-1.4-3.5-5.2-50.6-5.9-103.1-9.1-153.9-1.4-22.3-1.5-52.8-5.1-73.9-.4-2.2-.8-4.5-1.4-6.6l-8.5-2,1-2c-25.8-1.3-50.5,6.9-75.6,10.9-16.4,2.6-33.3,4.3-49.9,6.1-4.7.5-29.1,1.4-30.6,3.7l9.1,230.3-33.8-5.1-11.1-254.8,130.5-18.1c24.7,6.6,53.3-5.7,78.2-10.6,11-2.2,22.3-3.2,33.4-4.2.9-2,1.7-4,2.7-6.1-.2,0-.3,0-.5,0l-95.8,13.8-21.2-9.6-104.3-8.2c0,0,0-.1,0-.2-1.7,0-4.9-.7-4.9-.7h-.2l-357.5-29.1c-125,11.8-250,22.3-375,34.1-.7,0-2.9.2-4.2,0-2.4.5-7.2.8-7.2.8,0,0-.2,0-.2,0l-51,4.6L14.6,0s0,0-.1,0c-.5,2.2-.1,3.2,1.1,4.8.1,0,.1,0,.4,0l186.8,50.6-11.9,300.9-1.6,2.4-31.4,4.1,11.6-269-3-3.1L13.9,62.3,0,250.7c1,5.8,3.4,11.4,5.7,17-2.6-13.6.4-23.5,1.3-39.3,1.5-25.3,2.8-50.6,4.1-75.9l1.9-2.5c1.3,8.9-.4,16.9-1,25.5-.1,1.5,1,3.2.9,4.9-.2,2.9-1.7,5.7-1.9,8.6,1.9-1,3.6-2.9,4.7-4.8,1.6-2.9,8.1-20.8,8.3-23.8.1-2.8-4.9-26.6-6.1-27.5l-2.8,2.6-3.1,7.3,4-56.9h42.4s63.5,12,63.5,12l-.9,21.5c-11.4-.2-22.9-1.6-34.5-1.5-11.3,0-23.2.1-34.8.4-3.7,0-9.8.2-13.2.6-1.8.2-1.6-.3-1.5,2,4.7.3,9.9-.5,14.5,0,.5,0,5.5,1,5.5,2-11.8,0-24.1-.4-35,3l6.9,3.6-11.9,166.4s0,0,0,0c3.8,12.9,9.5,24.6,16.7,36.2,2.1-7.6,3-15.6,1.3-23.5.3-1.4,7.9-2.6,9.5-2.7,13-1,27.5,2,41,1,2.7-.2,5.5-1.4,8.4-1.1l1.8-4.9,15.4-.9-3,59.5.9,2.1c20.5,2.4,40.9,6.6,61.5,4.5l34.5,5-48.4,9.9c-13.6-3.2-27.7-7.4-41.6-7.9l8.7-4.8,2.2-3.2-23.3,5.9-23.7-5.9c8.6-2.8,19.3-3.7,26-10-4.1,0-6.6-2.6-10.9-3.6-2.2-.5-21.1-2.3-21.1-3.9,8.9-1.8,19.2-4.4,27-9,1.3-.8,2.5.2,2-2.5-13.2,3-27.1,4.6-40.2,8.3-4.4,1.2-12.4,2.2-11.8,7.7,4.5,2.5,9.2-1.1,13.4-.9,2.6.1,5.4,2.2,8.2,2.8,7.4,1.6,14.9,3,22.4,3.6l-34,12.5c2.9.2,5.4-1.3,8.4-1,10,1.1,22.6,9,35.1,9.1,5.4,0,11.8-3.1,16.5.4-6.5-.4-16.2,7-21.6,7.5-7.4.7-19-7.6-26.4-3.5-1.7.9-.5,1.7.6,2.4,9.4,5.6,25.6,8.2,36.4,7.1l-30.8,8.9c-.1-.2-.3-.4-.4-.5.3,2.7,2.1,4.8,4.3,6.2-.2-.4-.3-.8,0-1.5,12.2-1.7,26-3.6,37.9-6.6,29.9-7.7,59.5-16.5,89.9-23.1,18.9-4.1,38.1-8.1,57.2-10.3l-73.9,30.5c-17.1-5.3-36.9-4.7-54.1-.5l1.5,2,35.5,4c-19.9,6.3-39.8,13.3-58,23.5l4,.5-1.5,3c5.4-3.8,11.5-6,18-7l-3.5,2,3,.5c43.4-15.5,86.4-32,127.9-52.1,6.8,4.6,16.9,2.3,25,2.6l-80.8,40.8c-9.4-2.4-18-3.5-27.8-2.9-2.2.1-16.8,2.4-17.4,3.1-1.8,1.9,2.8,2.8,3.6,2.9,8.7,1,17.2.8,25.9,1.1,1.2,0,3.7-.8,3.5,1-1.9,1.8-13.3,4.7-13.8,5.2-.4.4.2,2-.8,2.9-1.7,1.5-9.5,4-12.3,5.5l-15.1,9.4c10.1-1.7,19.6-8.9,28.8-12.7,8.2-3.4,12.7-.4,20.7-.2,12.2.3,24.4-.3,36.5,0l-28.9,17.6c-6.2,6.9-15.1,11.5-21.8,17.2-1.1,1-2.8,1.1-2.3,3.2l25.5-14,57.5,3-41,33.5,1.5.5c8.9-6.3,18.8-11.1,27.9-17.2,20.2-13.5,38.7-29.6,58.7-43.3,14.1-2.2,29.4,2,43-2.5l-3.7-4c-9.3-.9-18.5.5-27.8,0-1.1,0-2.8.6-2.5-1,3.8-2,7.9-4.7,11.3-7.2,6-4.4,23.5-19.5,28.7-21.4,1.4-.5,2.2,1.5,2.5,1.5h44.5l-12.5,8c-27.1,22.5-50.2,49.1-77.1,71.9-4.2,2.7-8.7.1-12.8,0-10-.2-19.7.5-29.5,2-1.8,1.4.2,1.8,1.5,2,11.2,1.6,22.4.1,33.5,2l-11.5,13,17.2-12.8,59.3-1.2-8.5-2c-14-1-29.2,0-43-1-1.5-.1-2.9.8-2.5-1.5,39.4-32.5,74.9-69.2,113-103.1,1.4-1.2,2.9.6,3.5.6h35.5l-40,49.5c-16.9,1.7-34.2.6-51,3.5v3c1.9-.8,4.6,1,5.5,1h39.5l-25.5,40,35.5-40.5,31-1.5c-.4-1.9-2-1.8-3.5-2-7.8-1.1-15.8-.4-23.5-2l23-28.5,45,1.5-18,34.5,1.5.5,35.5-58.5,46-.5c-5.6-6.4-13-3-19.5-3-8.2.1-16.4-.2-24.5,0l27.5-52h31l1.1,2-6.6,22.9c-12.3-2-24.5.8-37,0l6.5,2h28c.2,0,1.1-1.5,1.5-1l-11.2,51.3-5.8,2.7v3h4l-8,48,4.5-11,9.4-35.5c10.5-.3,21.1,1.3,31.6.6,2-.1,14.9-1.1,13-4-1.6-1.3-7.4-3-9-3h-34.5l9.1-39.9c5.4-.1,11-.4,16.4-.2,3.2.1,13.7,3,15.5-.5.4-2.4-4-2.4-5.4-2.5-8.1-.5-18.4,1.5-26.5,2l4-21c9,1.2,18.9,3.2,28,1,.4-1.1-3.3-2-3.5-2h-24.5l3.5-15h28c2.2,2.6-.3,7.8-.5,11.5-1.7,33.3,3.8,63.5,6.1,96,.5,7.9-2,14.2-2,21,0,2.7,2.4,13.5,1.9,14.9l-3.9,2.1,4.1,2.1c0,12,2.3,23.8,4.9,35.4l2-3.5c1.5-10.5-.6-21-1-31.5,21.5,1.1,42.8.3,64.4-.1l1.7-2.4c-1.3-8.2-13.3-2.5-19.5-5.4l-46.7,1.3c-.7-1-.7-11.5-1-13.8-.8-5.2-3.4-10.5-3.9-15.1-1.9-17.3,1.4-37.9,0-55.5,14.9,3.5,30.8,2,46,1.4l7.9,20.6c-2.9-26.5-14.2-51.8-22.6-76.9l1.1-2.1h33l20.5,39c-13.4-.1-26.8-.4-40,2-.4,1.1,3.3,2,3.5,2h36c.3,0,1-1,1.9-.9l20.6,36.9h-45.5c-.4,0-3.5,2-3.5,3,1.7,2.3,44.9.8,51,.5,14.2,23.2,23.8,48.4,35,73.1l-58.9,2.5-28.6-70c-2.4,3.6,5.1,15.6,3.5,18l-53,1c.4,2,2.1,1.7,3.5,2,6.5,1.3,17.1,1.8,24,2,9.2.3,18.8.7,27.5-2,3.3,13,6.2,26.2,10.6,39,2.1,6.2,11,30.8,16,33,6.1-5.4-2.3-13.8-2.5-20.5,20,.4,40.9,1.7,61-.5,3.3,5.9,9.6,27.6,17.7,16.5.6-6-18.2-29.7-16.7-31.5,16.3,4.7,33.7,1.3,50.5,1.9,5.9.2,12.5,1.8,18.8,1.3,1.8.5,16.3,20.9,19.7,24.4.7.8,4.4,4.4,5,4.8,1.1.8,6.3,1.6,8,4.6l-12.2-19.3c-17.3-21-32.7-43.6-49.8-65.2-26.3-33.1-55.4-64-83-96l11.5-1.6c6.5,2.9,20.1-.8,25.5,1.6,1.7.8,5.5,5.7,7,7.5l-19.3-.6-13.7,1.6c11.4,3,22.8,1.9,34.3.2l33.7,28.4c.4,2.3-1,1.4-2.5,1.5-11.7.9-23.8,0-35.5,1,0,.6,1.3,2,1.5,2h41c14,11,27,23.4,39.5,36-13.3-1.6-26.9.3-40.2,1.3l-8.8,2.7c14.3.5,30.3,2.2,44.5,1.1,3.2-.3,6.3-2.6,8.4-1.6,14,11.8,25.9,26.2,41,36.6l-.5,2-4.9-1.1c-9.5,2.4-22.7.3-31.9,3.2-1.3.4-2.4,1.6-1.2,2.8,1.2,2,9.5,2.5,12.2,2.6,10.3.3,22.2-1.2,32.6-1.4,12.9,9.9,23.2,23,36.7,32.3l-69,6.5c16.8,2.5,33.5,3.7,50.5,3,7.1-.2,23.4-3.8,29.2-1.3,2.7,1.1,4.3,5,7.7,5.3l-3.5-7c2.9-.4,5.6.9,8.5,1,9.4.4,22.6.6,31.8-.3,3.2-.3,4.5-1.2,6.8-3.2-1.5-1.8-3.2-2.3-5.5-2.5-15.4-1.7-31.1-.2-46.5-1.5-14.3-12.2-27.8-25.7-42-38-29.8-25.8-61.5-49.6-89-78l25-1.5c1.6-1.5-9.1-3-10.5-3-5.7-.3-14.3,2.1-18.8.8-2.2-.6-21.9-18.4-25.4-21.5-.7-.6-1.9,0-1.3-2.3h25.5c.4,0,1.5-1.2,2.5-.6,19.7,12.1,37.9,26.7,56,41.1l-21,2.5c7.4,1.4,15.1.4,22.5,1,9.9.9,27,15.9,35.8,22.2,20.9,15.2,38,28,56.7,46.3,9.5,9.2,19.6,13.3,30.9,19.1,2.5,1.3,5.6,5,8.1,3.9-1.4-1.3-2.6-2.8-4-4-26.1-23.5-56.9-38.7-82.3-60.6-1-.9-2.1-1-1.7-2.8h38.5c.9,0,8.6-2.1,6.5-4-17.2-4-35.6-1.3-53-1.5l-20-17.4c4.8.8,10.9,1.6,15.7,1.6,2.5,0,12.8-.4,13.3-2.1l-1-3c-3.9-3.8-28.9.3-36.1-1.9-2.5-.8-13.4-9.7-17-12-8.4-5.3-17.8-9.5-24.9-16.6h17.5c1.6,0,5.8-2.1,8.5-1-.2-1.4-1.4-1.8-2.5-2-8.2-1.4-19.3.8-27.7.7l-21.8-15.3,32.7.3c48.1,28.3,95.6,57.2,144.4,84.6,5.4,3,12.1,6.1,17.9,8.6.3,1.6-1.3.9-2.5,1-12.3.6-24.7-.5-37,1l-18.5,3c24.3,3,48.8,3,73.3,3.2,9.6,4.4,18.6,10.7,27.7,15.3,7.2,3.6,14.8,6.6,22.1,9.9,1.7.8,3.7,3.6,4.9,2.1-4.4-2.2-6.9-7.3-10-10-7.6-6.5-20.7-10.2-28-17.5h43.4c2.1-2.7,1.3-5.3-.6-7.8l-60-.5-31.7-16.8c-.3-1.6,1.3-.9,2.5-1,5.5-.3,11-.6,16.5-1,.9-3.8-2.2-3.8-5.5-4-7.4-.5-15.1.2-22.5.5-24.2-12.9-47.7-27.5-72-40-2.3-1.2-40.1-17.9-38-19.5,7.9.5,15.6.9,23.5,0,1.5-.2,3.1-.2,3.5-2-9.8-2.2-20.2-1-30,.5l-35-18.5,30-.6,64.4,32.5c.7,5.1,7.6,4,11.6,5.6,12.7,4.8,25,11.3,38,15.5.3,1.7-2.4,1.1-3.5,1-9.9-.6-17.1-2.3-27.2.7-1.2.3-4.2.8-4.2,2.3,16.3,2.5,32.9,4.1,49.2,1.2l43.7,16.8c-1.2,2-5.2,1.9-7.2,3.2-1.2.8-2.1.9-1.7,2.8,6.2,2.2,11.8-.6,18.5,0,16.2,1.5,37.1,16.5,53.2,19.7,1.1.2,2.2.4,3.2.2l-42-21c13.1-1.1,26.4-.3,39.5-1,2.7-.1,5.8-1.9,8.1-1.9,3.8.1,12.6,4.9,17,5.9l.5-2c-4.2-2.2-17.2-4.9-19.5-8.1-.5-.8-.3-2.4-.7-2.8-.6-.8-16.4.3-19.7-2.8l-52.2-20.3,120,14s0,0,0,0c.4-.6.8-1.1,1.2-1.7,0,0,0,0-.1,0h0ZM16.5,82.9c-2.3-1.4-.3-2.9-.5-5,5.9,2,12,2.4,18,3.5,1.1.2,3.2,0,3,1.5h-20.5ZM110.9,296.9c-5.3,1-10.6,1.3-15.9,1.1l2-35h16l-2.1,34h0ZM113,259.3c-.6,2-12.7,1.6-15.1,1.6,1.8-37.7,5.5-75.3,7-113h15l-6.9,111.4ZM120,139.9h-26.5c-.3,0-2.4,1-2.5,1.7l-10,161.3c-5.6.8-11.2-.8-16.5-1-2.6-.1-17.5,1-17.5-1.5l4-1.5-1-6,2,3c.2-7.6,2.1-15,2.8-22.5,2.4-26.1,1.8-52.7,3.2-79,.9-17.3,4.5-34.7,5-52,.2-5.8-.5-8.9-4-13.5l60.3,2.1,1.6,1.5-.9,7.4h0ZM117.3,390.8l-10.4-2c-.3-2.4,0-1.6,1.4-2.1,3.9-1.4,8.3-1.6,12.6-3.4,2.2-.9,6.1-4.1,6.6-4.2,1.4-.3,4.9,1.4,7,1.7,5.4.6,10.9,1.1,16.4,1.1l-33.6,8.9h0ZM1175.8,180.6l5.2,91.4c-8.1.4-15.7-6.1-23-1l-5-90,20.6-1.9,2.2,1.6h0ZM1174,161.9l-22.1,2.6c-1.8-1.3-.8-10.2-1-13.1-.4-5.3-1.8-10.8-.9-16.4l22.9-2.1,1,29h0ZM1171,107.9v14c-9.3.2-18.3,1.9-27.5,3-3.1.4-15.6-.5-16.5,2.7l9.4,201.3c-4.5-.8-32.8-1.1-33.5-3.7l-6.9-129.3c2.1,1.3,2.3,4.1,5.2,5.2,6.9,2.8,10.3,1,9.7-6.2-6.1,1-8.1-1.6-11.5-5.8l-4.5,2.8-4-77,80-7h0ZM1091,187.9l8.2,140.4c1,2.9,6.9,1.2,9.3,1.6l12.5,2-72,10v-10c10.9-.1,22.6,0,33.5-1,5.5-.5,11.2-.6,15.5-4,0-1.5-3.6-1.8-4.6-1.9-14.5-1.5-30.7,4.1-45.4,3.9v-8c13-.8,27.6-.2,40.4-2.1,2.4-.4,5.8-.7,7.6-2.4-3.8,1.1-2.4-1.3-4.4-1.6-2.6-.3-7.3,0-10.1,0-10.9.5-22.4,2.9-33.5,3v-8l37.5-1,11.5-3.5c-1.6-.6-1.8-2.4-3.4-2.6-5.7-.8-14.9,0-20.5,1.1l-5.9-112.9,23.9-3.1h0ZM1040,185.9c2.8.4,9.1-1.2,9,3h-9v-3ZM1038,139.9h6.4c0,.1,1.5,1.6,1.5,1.6l2.2,42.4h-8l-2-44h0ZM1049,191.9l3,66h-6.4c0-.1-1.5-1.6-1.5-1.6l-4.1-63.9,9-.5h0ZM1052.8,263.5l3.1,41.4h-9l-2-40.5c0-3.5,7-3.4,7.9-.9h0ZM1090,172.9l-24,3-3-45c4.1,1.6,23.2,0,24.6,1.9l2.4,40.1ZM1085.9,116c.7,2.7,2.4,11.8.1,13.5l-22.9-1.7-1.1-9.9s23.9-1.9,23.9-1.9ZM1049,118.9h8.4c0,.1,1.6,2.5,1.6,2.5l10,183.5h-11l-8.1-167.4c-1-3.1-9.2-1.1-11.9-1.6v-7h10.9c0-.1.1-10,.1-10h0ZM1037.9,120.3l7.1-.4-.9,5.5-7.1.5.9-5.6h0ZM1041.5,344.9c14.9-1.2,38.1-4.2,52-4,7.9,0,17.3,4.1,25.5,3-.6,2-3.1,2.3-4.8,2.7-10.3,2.5-37.2,8.2-46.8,8.3-10.2.1-24.6-7-35.4-7,1.3-2.1,7.1-2.8,9.5-3h0ZM1023.5,348.8c10,0,21.9,7.2,32.5,6.1.5,3-.7,1.6-2.4,2-8.5,2.1-18.6,2.1-27.2,4.6l-57.3-6.1c0-.7,2.8-1.3,3.6-1.4,15.6-1.5,36-5.2,50.9-5.2h0ZM961.6,324.6c-2.6-.3-7-4.4-10.6-3.7-1.8-1.8-.7-1.4,1-1.6,8.9-1.1,18.2.4,26.9-2.4l1,6c-5.4-.4-13.4,2.2-18.4,1.7h0ZM980,326.9v8c-5.1.2-11.7,2-16.5,2.1-5.4,0-15-4.8-20.5-6.5l37-3.5ZM926.4,318.8l-14.4-7.4c-2.5-4.1,1.1-.5,1.5-.5,10.1,0,25.7-1.3,35,0,2.5.4,9.4,3,11.5,5l-33.6,2.9ZM979,313.9c-7.9.9-14.8,3-21-3.5l21-.5v4ZM979,302.9l-101.5,3.5c-2.3-.1-6-1.2-7.9-2.6-2.1-1.5-.4-3.6-2.6-5.3-2-1.5-9-2.5-10-4.3-1.3-2.4-1.6-25.5-1.6-30.2,0-1.2,0-1.3,1.1-2h120.5l2,41h0ZM414,298.4c0-.4,5.9-2.6,7-3,8.3-3.2,15.9-5,25.5-5.5h389.1c8.3.4,14.6,6.5,22.5,8.1l-444,.5h0ZM603.5,304.9c-23.7,1-48.2-.4-72,0-2.4,0-4.5,1-6.9,1.1-12.5.2-25.1.2-37.5-.5,39.8-3,80-.8,120-1.5.2,1.7-2.3.9-3.5,1h0ZM365,327.9l24-12v2.9c0,0,11,.1,11,.1.3.2-.6,1.2-1,1.5-1.3.8-17.7,8.2-18.7,8.3-3.5.5-10.9-2-15.3-.8h0ZM373,332.9l-32.3,16.3c-.9.7-1.8-.3-2.2-.3-5.5,0-11.6-.4-17,0-.7,0-2,1.6-3.5,1,.2-1.4,1.8-1.9,3-2.5,4.8-2.6,35.1-16.7,38.5-17,1.6-.1,6,.4,7.9.6,1.2.2,5.5.4,5.6,1.9h0ZM208,329.9l8.9-2.1.2-7.8c2.2-2.3,30.2-.5,35.3-3.2.6-.3,1.2-.5,1.4-1.3l.2-5.8c1.7-3.1,18.2-1.4,22.4-1.9,3.6-.5,6.1-2.5,9.1-2.9,4.7-.6,10.7.5,15.5,0l-13.5,5.9-31.4,1.1,1.5,2,41.5,1-14.6,6.7c-20.6-1.2-41.7-1.3-62.4.3l7.5,2c18.3,1.3,36.7.5,55,1,4.5.1,8.5,2.1,13.5,0l-16.8,7.8c-24.4-1.6-48.8-2.9-73.2-2.8h0ZM302,336.9l-17.4,8.9c-19.4-2.5-39-3.4-58.6-3.9l19.5-7,56.5,2h0ZM226,115.9l31,3c-2.5,63.8-5.5,127.4-7.2,191.3-1.3,6.1-10.9,3.3-16.3,3.7-5.4.4-11.1,1.3-16.5,2l9-200h0ZM226,111.9v-34.5l1.7-1.3,8.8.7-.6,34.5-.8,1.2s-9.1-.6-9.1-.6ZM270,89.9l13,4c.4,1-1,2.1-1,2.4v30.5c-3,.2-14.1.8-14-3.5,0-1.4,2.3-1.8,2.8-5.2,1.3-9,1.3-19.4-.7-28.2h0ZM286.5,95.9c1.2-1.6,1.2-.5,2.2-.2,3.3,1.2,6.7,3.2,10.2,4.3l-.3,25.9c-1,1.4-11.3,1.4-12.6.5-2.3-1.6,0-5.8,0-8.1.3-7.5-.6-15.1.5-22.5ZM287.6,79l-.6-3.1h44v21l-43.4-17.9ZM324,108.9v18h-2v-18h2ZM319,126.9l-4.3-.2-1.6-1.5.9-19.4c10.7.4,4.4,13.9,5,21h0ZM311.8,105.5l-.9,21.4c-2.5-.4-8.9,1.2-9.9-1.7l.9-24.3,9.9,4.6h0ZM430,130.9l1-55h10c-.8,17.2,1,35.4,0,52.5,0,.3-1,.8-1,1.5l5.5,1.1c122.2-.5,244.3.8,366-1.1,8.5-.1,17,.2,25.5,0l-1-56h10.4l1.6,53.5,1.5,2.5h121.5v7h-121.5l2.5,156-10-3.7-3.9-148.9-1-3c-25.8-.5-52.5-.7-78.6-.5-3.1,0-5.8,1.1-8.9,1.1-102.6.7-205.3-.7-307.9,0l-4.6,150.3-9.5,2.6,2-152.1-3-1h-136.9c0,.1-2.3-4-2.3-4l-13.3-2.9h156ZM351,106.4l28-6.5v15.5c0,.6-1.4,1.4-2.3,1.3-5.3-.3-18.9-10.1-25.7-10.3ZM356,126.9l-7-1v-8s6.8,3.2,6.8,3.2v5.8q.1,0,.2,0ZM378.4,87l-44.4,10.9v-20.5l1.5-1.5h43.5l-.6,11.1h0ZM347,123.4c-.6,5.1-5.7,4.1-9.6,2.5l-.4-12.1c5.9,2.3,11,1.7,10,9.5ZM382.9,98.4l44-11.4v26l-35.5,9c-3.9-.5-9-.8-9.5-5.5-.3-2.7-.4-17.2,1-18.1h0ZM382,75.9l41-1-41,11v-10h0ZM479,110.9v16h-33.5c-1.8-1-2.3-6.1-.9-7.1l34.4-8.9ZM445,108.9v-25.5l1.7-1.3,32.3-7.2v25l-34,9ZM518,89.3l-34.6,9.6c-3,.3-.5-1.1-.5-1.5v-22.5c3.6-.9,7.4.9,10.5,1,4.7.2,10.9,0,16,0,2.1,0,5.8-1.2,6.8-1,3.1.9,1,11.5,1.7,14.3h0ZM518,100.9v19.5c-2.5,2.4-8.2,5.9-11.6,6.4-3.6.6-18.6.7-21.9,0-1.1-.2-1.9-.5-2.5-1.5v-15.5l36-9ZM522,75.9c6,1.2,28.2-3.2,32-.6,1.8,1.2,1.5,4.2-.8,5.3-7.7,3.9-22.5,4.1-30.8,8.2-.9-.8-1.3-.9-1.3-2.2,0-2.9,1.6-7.3.8-10.8h0ZM524,99.4c9-3.3,21.2-4.7,30.5-7.5.6,0,1.6,11-1.1,11.9l-32.4,16.1v-18.5c.8-1,1.8-1.6,3-2h0ZM555,126.9c-5.9-1-16.2,1.3-21.5,0-.4,0-1.8-1.7-1.5-2,8.3-3.9,13.5-6.5,23-4v6h0ZM561.9,84.5c0,2-1,3.8-1,5.8v36.5s-3,0-3,0v-52h3c-.8,3.2.9,6.9.9,9.6h0ZM597,126.9h-31.4c-2.3-.9-1.6-4.1-1.6-6l31.4-.9c2.4.8,1.6,4.9,1.6,6.9ZM597,117.9h-33l.6-9.1c11.7-4.1,18.5-12.8,32.4-9.9v19ZM564,98.9c.4-2.5-1-7.8,1-9.5l31-7.5-32,17h0ZM636,126.9h-35l-.7-5.6c.6-3.3,8.3-.4,10.2-.4,1.9,0,3.8-1,6-1,6,0,12,0,17.9.2,2.5.8,1.5,4.7,1.6,6.9h0ZM636,95.9h-35c0-1.4-.3-3,.2-4.3.7-2.1,28-15.1,32.4-16.7.8-.2,2.4,1.1,2.4,1.5v19.5h0ZM601.5,98.9h34.5v19h-35c1.2-2.6-2.7-19,.5-19ZM673.5,98.9l1.5,1.5v17.5h-36v-19h34.5ZM639,95.9v-21c10.6-1.7,19,3.6,27.7,8.8,5.7,3.4,9.8,4.2,8.3,12.2h-36ZM675,119.9v7h-36v-7h36ZM709.5,96.9l-27.5-16c9.7.6,19.4,3.8,28.9,6.1.4.6.3,7.1.1,8.4-.2,1.4.5,1.7-1.5,1.5h0ZM693.5,98.9c1,0,16.5,9.1,17,10,1.1,1.8,1.1,7.6-1,9h-30l-1.5-1.5v-17.5h15.5ZM711,119.9v7c-10.9-1.6-22,1.7-32.9-1.1v-5.9c-.1,0,32.9,0,32.9,0h0ZM718,77.4v49.5c-1.2.4-4-.4-4-1.5v-51.5h2.9c-.3,1.3,1.1,3,1.1,3.5ZM721.9,102.5c-2.1-2.9-.4-9-.9-12.6l33.8,8.2,1.2,21.8-2.3-.2c-5.8-4.9-28.2-12.3-31.7-17.3h0ZM744,125.9h-23v-6c4.5.3,9.4-.8,13.7.8l9.3,5.2h0ZM755,86.9c-4.5-2.8-34.3-7.3-35-10.5l1.5-2.5h33.5v13h0ZM759,107.4c0-3-2.5-6.4.4-8.3l34.5,9.3v17.5h-29.5c-.3,0-5.4-3.4-5.5-3.7-.1-4.9.2-9.9,0-14.8h0ZM759,87.4c-1.5-1.1-1.9-11.8.5-13.5h33.5l.5,22-34.5-8.5h0ZM831.5,105.9l-34.5-9v-23c12.6-1.9,22.9,4.5,35,6-1.2,3.3,3.2,25.6-.4,25.9ZM797.5,108.9l35.4,8.2,1.1,8.9h-35.5c-2.8-.9-.6-4.9-.7-6.5,0-1.6-2-10.3-.3-10.5h0ZM855.2,86.2l40.6,10.9c-1.7,8.9,7.5,24.1-7.3,22.8l-37.6-10c-.6-6.8.8-14.8,0-21.5,0-.4-1.4-1.4-1-2.5l5.3.2h0ZM854,73.9h42l-.5,11-41.5-11ZM862.5,125.9c-3.8.2-12.6,1.7-11.5-4l15,3c.2,1.8-2.3.9-3.5,1h0ZM898.9,85.3v-11.4c0,0,44.1-1,44.1-1l1,24-45.1-11.6h0ZM944.8,124.8l-8.9,1.2v-9.9c.1,0,8-3.1,8-3.1l.9,11.9ZM934,125.9h-8l.2-5.8,6.3-3.1c2.6,2.1-.5,5.7,1.5,9ZM900.4,97.9c1.8,0,27.5,6.1,27.5,7.5l-28,11.5c-.2-5.5.3-11,0-16.5,0-.7-2.7-2.7.5-2.5ZM953.5,257.9l-2.5-1.5c-.7-17.5,0-35.7-1-53.1-.2-4.2-.8-11.2-2.5-14.5h-46.5c2,14.6,1.5,29.7,2,44.5,0,2.4,1,4.6,1.1,6.9.2,5.1.2,11,0,16.1-.1,2.3-.5,1.5-2.5,1.5l-1.5-48.5c-1.7-6.7,1.3-14.4-2.5-20.5h-44.5v-3h46c-1.1-11.9-.7-23.6-1-35.6,0-3.2-2.7-7,.5-9.4,1.8,1.2,1.4,2.6,1.5,4.4,1,13.5,1,27,1,40.5h48c.2-13.7-2.7-30.1-1-43.5.2-1.5.8-3.1,2-1.5l1.4,45.1c1.8,2.5,18.6-1.5,22.6,0v3h-23l2.5,69h0ZM940,192.5l7-.6,2,59.4-5.6-.4c-2.8-19.3-3.7-38.9-3.5-58.5h0ZM941,250.9l-9-2.5c2-2.7,5.2-1.7,8-2.1l1,4.5h0ZM917,204.4l2,43.5h-6c0,0-2.1-44.3-2.1-44.3.4-1.7,6.3-2.8,6,.8h0ZM910.4,191.9c1.4-1.9,4.7-.6,6.4.2l.2,7.9h-6l-.5-8ZM919,198.9v-7h7v7h-7ZM926,200.9l2,48h-7l-1.1-46.4,6.1-1.6ZM906.8,206.5c0-1.3-1.3-2.4.7-3.6l2.5,44h-4v-3l2,1c1-12.9-1.3-25.7-1.2-38.4h0ZM898,246.9l-2-1.5-1-41.5,2,3.5,1,39.5h0ZM880,205.9l5-1,1,39.4c-.2,1.1-4.4,1.4-5-1.9-1.9-10.7,2.2-25.5-1-36.5h0ZM880,202.9v-11h5v11h-5ZM873,191.9h5v10.4s-3.5,1.4-3.5,1.4c-2.6-.4-1.1-9.4-1.5-11.8h0ZM871,206.9l1,37h-4l-1-37h4ZM867,191.9h3l1,12h-4v-12ZM854,232.4v-23.5h3l1,31.5-3,1.5c1.1-3-1-7.6-1-9.5h0ZM856,191.9l1,14c-4.4,3.9-6.7-14.1-1-14ZM852,168.4v-20.5h3v27c-1.4,0-3-5.5-3-6.5ZM857,149.4c0-1.7-2.5-3.7,3-3.5l1,27h-4c-.2-7.8.2-15.7,0-23.5h0ZM865,144.4c.4-2.5,1.6-2.8,4-2.5l1,29h-4c1.3-8.4-2.4-18.5-1-26.5ZM877,168.4l-5,1.5c-.2-6.8.3-13.7,0-20.6-.2-5.9-4.4-8.4,5-7.5v26.5h0ZM878,177.9v6h-6c-.9-4.6,2.1-5.5,6-6h0ZM883.8,167.8l-4.9,1.1v-28c1.6,0,2.3-.4,3.5,1,3.2,3.8.9,20.3,1.4,25.8h0ZM885,183.9h-4.9c0-.1-.7-6-.7-6l4.6-1,1,7ZM894,164.9c.5-1.3-1-2.9-1-3.5v-19.5h2v17.5c0,1.2,2.9,4.2-1,5.5ZM915.8,158.3l-.8,1.1-6,1.5v-18.5l6-1.5v15.5c0,.3,1,1,.9,1.9ZM916,170.9v13h-6v-13h6ZM926,183.9h-7v-14l6-1c.4,5-1,10.3,1,15ZM924.4,157l-6.4.9v-16h6l1.1,13.5-.7,1.6h0ZM927,156.9v-16h7v14l-7,2ZM939,172.4c-.2-7-3.2-7.3,7-8.5v20h-7c0-3.8.1-7.7,0-11.5h0ZM937,153.9v-13h8c1.5,9.2,2.4,11.6-8,13ZM959,167.9l-1-7,5-1c-.5,7.7-3.6,15.5-2,23l2.5-4,.5,5h-10l-1-22h4c.8.8-1.9,7,2,6h0ZM973,183.9h-8v-25l6.5-.8,1.5,1.2v24.5ZM971.8,144.8l-6.8,2.1v-6h7l-.2,3.9h0ZM964,108.4c0-.4-1.4-1.2-.6-2.5l6.6-3,1,23h-7c0-5.8.1-11.7,0-17.5h0ZM838,285.9h-395.5l1.6-142.9,387.4-2.2,1.3.2c.5,2.1,1,4.2,1.2,6.4,2.8,41.5,1.5,83.6,2.9,125.1.1,4.3,1.9,8.9,1,13.5ZM424,239.4c-.4,2.5-1.6,2.8-4,2.5l1-48.5c7.3-2.2,3.1,12.5,3,16.9-.2,8.3,1.4,21.7,0,29h0ZM418,241.9h-5c-1-6.2.9-12.8,1.1-18.5.2-8.8-1.2-19.2-.1-28.1.6-4.9,4.5-4.9,5.1,0,1.7,14.7-2.6,31.6-1,46.6h0ZM380,189.9l-1,56.5-2.5,10.5,1.5-67h-48l-2,67c-3.8-1.8-1-6.3-1-9.5.5-19.2.8-38.4,1-57.5h-41v-3h41c2.4-14.6-.8-29.6,2.5-44,1.1,0,.6,20.4.5,22.6-.2,6.4-3.2,15.5.5,21.5h46.5l1-44h3c.5.4-1,1.3-1,1.5v42.5h44v3h-45,0ZM411,240.4c-.5,3-2.3,2.6-5,2.5v-48.5l6-1.5c.9,4.9-.9,9.9-1,14.5-.3,9.3,1.6,24.9,0,33ZM404,242.3l-5,1.6,1-52,3.8,1.1.2,49.3h0ZM393.1,193h3.9c0-.1,0,47.4,0,47.4,0,3.7-2.8,4-6,3.5,0-13.5,1.3-27,1.8-40.5.1-3-1.7-6.7.3-10.4h0ZM390,192.9l-1,50.5-2,1.5,1-50.5,2-1.5ZM372.7,245.7l-7.8,1.2,1.9-54.6c3.7-1.3,8-.6,8.1,4-1,13.3-1.2,26.7-1.9,40-.1,2.7,2.1,6.2-.4,9.3h0ZM364,192.9l-2,53.4-7.1,1.6,2-56,7,1h0ZM354,191.9l-1,56h-8l1.1-50.4,1.1-4.4,6.8-1.2h0ZM342,248.9h-7v-7s3,5,3,5v-8s1,7,1,7l1-4c2.8.9,1.9,4.5,2,7h0ZM333,247.4l-3,2.5,2-55.5,2-1.5c-1.5,18.1-.9,36.3-1,54.5h0ZM320,247.4c-.2,2-.5,3.7-3,3.4l3.5-59c3.4,3.3.6,8.5.5,12.4-.4,13.7.7,29.6-.9,43.1h0ZM323,242.4v-16.5h1v24h-2c-1.1-2.4,1-6.2,1-7.5ZM313,192.9h4l-2,58h-6c2.6-19.2,4.8-38.5,4-58ZM306.9,217.4c-.2,11.5.8,23.1-1,34.5l-11,1.1,3-60,8.4-.9c3.4,1.9.7,5.8.8,8.4.2,6.5-.1,10.8-.2,17h0ZM293.8,193.1l-2,59.8h-6.9c2.2-20,.8-40.8,3.1-60.8l5.8,1.1h0ZM288,183.9l1-28,7,1-1,27h-7,0ZM299,157.9l10,1v24.5c0,3-9,.1-11,.5.7-8.6,1.4-17.3,1-26ZM318,160.9l-1,23h-4c2.9-7.5-1.1-15.3,0-23h5ZM313,142.9h6v5l-5.6-.9-.4-4.1h0ZM320,163.4c0-.3,1.4-1.5,2-1.5.1,6.9.8,13.6,0,20.5-.2,1.9.3,1.6-2,1.5.9-5.6-1.3-15.5,0-20.5h0ZM332,183.9v-20h2v20h-2ZM345,167.4v16.5h-8l-1-19,9,2.5h0ZM337,141.9l8.9,1.1-.3,10.9c-1.2,1.9-6.5-.9-8.4-1.2v-10.9h-.1ZM355,168.9v15h-8v-16l8,1ZM355.8,143.1l-.3,12.9c-1.1,1.7-5.4.4-6.5-.5-2.7-2.3-2.5-19.2,6.9-12.4h0ZM358,141.9l7,1v16l-8-1.5c1.9-4.9.7-10.3,1-15.4h0ZM364.8,171l-.9,12.9h-7l1-15,6.9,2.1h0ZM376,172.9c-1.7,3.4-.9,7.3-1,11h-8v-13l9,2ZM368,159.4v-17.5l9,1c.4,1-1,2.1-1,2.5v16.5l-8-2.5ZM390,143.9h2c.5.4-1,1.3-1,1.5v20.5h-2c.7-6-.9-13.8,0-19.5,0-.5,1.2-1.5,1-2.5ZM398,167.9l-4.6-1.9c-1.5-2,.6-3.8.6-4.6v-18.5h5l-1,25h0ZM398,176.9v7h-5v-7h5ZM404.8,179v4.2s-3.3,1.7-3.3,1.7l-1.5-7,4.9,1.1h0ZM401,167.4v-24.5h4v26c-1.2.4-4-.4-4-1.5ZM407.1,169.8c.2-9.1.8-17.8.9-26.9h5v28l-5.9-1.1ZM415,171.9v-29l5.4,1.9.7,1.6-1.1,26.5-5-1h0ZM425,174.9l-3-1.7,1-27.3,3,2.5-1,26.5h0ZM285,136.9c-.2,7.8.2,15.7,0,23.5-.5,19.9-2.4,40.1-3.1,59.9-.9,24.8.5,53.7-2.1,77.9-.1.9-.7,4.5-1.5,4.7l-24.4.9,6.2-168.4,2.2-1.6,22.6,3h0ZM266,126.9h-5c.2-8.5-.2-13.3-9.9-13.1l1-30.9c2.9.9,14.1,3.4,14.9,5.7l-.9,38.3ZM294,321.9v-1c3,.8,9.9-6,10.5-6h34.5v1c-3.1-.9-8.9,6-9.5,6h-35.5ZM292,311.9l16.5-7h21.5l-11.5,7.1h-26.5ZM285.5,300.9c-.2,0-1.3,1.9-1.5.5l1-40.5h138v30.5c-3.8,3.3-15.2,4.6-18.4,7.4-1.2,1-.4,2.9-.6,3.1-.7.8-3.2-1-3.5-1h-115ZM405,320.4c8.4-3.1,17.3-.3,26-1.5.4.2-.5,1.2-1,1.5-1.8,1.2-18.9,10.8-20,11.1-3,.6-5.9-1.5-7.5-1.5h-14.5l17-9.5h0ZM976,254.9l-19.9-3.1-2.2-56.4,1.5-3.4c2.3,0,1.3,8.9,1.5,11,1.4,0,1.6-4.7,1.6-5.7,0-1.8-.8-3.5-.6-5.3h5l-.5,1.8-1.5-.8c-2.1,5.8.5,4.4,1.7,6.3.7,1.1.6,5.7,1.8,5.7l.5-13h9l2,63h0ZM994.4,74c-1.6,0-3.8,2.2-6.2,2.7-4,.8-16.9.3-18.8,4.2-.9,1.8,1.9,4.3-.4,6.5-.7.7-17.6,8.2-18.7,8.3-1.3.2-3.3-.3-3.3-1.3v-21.5c20.2,1.9,40.7-1.6,61,.5-4.4,2.4-9.9.4-13.6.6h0ZM207,65.9c11.5,0,23,.1,34.6,0,164.8-1.1,330.6-2.3,495.9-3.1,116.7-.5,232.1-.2,348.5-.9-.6,1.5-5,1.6-6.7,1.8-17.2,2.7-30.7,4.2-47.9,4.3-225.7,1.1-453.4,2.9-679.8,3.9-48.2.2-96.4.2-144.6-.6v-5.4h0ZM206.9,76.3l15.1-.4-1,15c-1.6,0-.8-1.9-2.7-2.8-3.2-1.6-8.8-2.5-12.3-2.2,0,0,.9-9.6.9-9.6ZM206.9,273.4c2-48.9,4.9-98,7.1-146.9.5-11.8-.5-23.7,1-35.5l6.8,4.2c.6.9.3,17.5.2,20.4-1.3,53.9-5.6,108-8.1,161.9-.6,13.4.5,30.2-.9,43.1-.6,5.6-2.7,5.9-8,5.5.9-17.5,1.2-35,2-52.5ZM196,330.9c3.6-1.4,3.8,2,5.5,2.1,1.3,0,2.7-.6,4-.5,9.5.5,19,1.3,28.5,1.5l-18.5,7h-18.5l2.5,3,41.5,2-20.8,7.8c-1.1.5-2.3-.9-2.7-.9h-22.5l1-22h0ZM212.4,368.8c-10.5-3.2-21.6-4.1-32.5-4.9l15-3-1-6,62,4-43.5,9.8h0ZM264.5,358c-11.2,0-23.9-4.1-35.5-3.6l21.5-7.5,53.5,1-12-3c3.7.8,13.7-8,14.5-8h28.5c.3-1.3-1.9-1.6-2.7-1.8-13.6-2.1-27.6-.9-41.3-2.3l13.5-7h54.5v-2c-2.7,1.1-6.9-1-8.5-1h-17.5c10.6-11.8,25.5-7.2,39.5-8,3.8-.2,7.5-1.7,11.5-1,.2-1.8-2.3-.9-3.5-1-19.1-.8-38.3-1.2-57.5-1l14.5-6h58.5c-.9,2.1-4.7,1.2-6.6,2.9-2,1.8-.8,5.3-3.7,6.3l-86.9,38.1c-10.6.5-24.2,4.8-34.3,4.8h0ZM274.5,370c-1.1,0-4.7.7-4.5-1,1.8,0,3.6-.5,5.3-1.2,4.4-1.8,30.5-13.8,32.2-13.8h20.5l-28,15.4c-8.5-1.4-17.1.2-25.5.6h0ZM203.5,424c-1.1,0-3.8.6-3.5-1,7.3-2.5,14.4-5.8,21.4-9.1,25-12,50.6-27.3,75.8-38.2,9.1-4,18.6-6.3,28.1-10.9,9.6-4.7,15.3-10.4,26.3-11.7,6-.7,12.4.5,18.5-2-2.4-3.2-8.8-1.8-12.5-2-1.1,0-2.7.6-2.5-1,5.1-.7,23.5-15,26.5-15h24.5l-69.7,41.8c-12.6,6.7-25.7,12.3-37,21-12.6-1.4-25.8-1.7-38.3,1.2l2.5,3,25.5,1.5-34.9,21.1c-16.9.2-33.8.9-50.5,1.5ZM363,390.5c-8.3,6.2-38,33.2-45.6,34.4-5,.8-15-2.1-16.4,4,2.8.1,5.7-.1,8.5,0,1.1,0,2.7-.6,2.5,1l-31.5,21.8c-4-4.6-11.2-2.5-17-2.8-10.1-.5-19.9,0-30,0-3.4,0-7.2.3-10.5-.5l32.7-19.3c4.6,0,20,2.4,23.3.4.6-.4,2.1-3.3,2-3.5-5.4-2.9-12.2-2.8-18-1v-2c7.9-4.1,15.7-8.6,23.3-13.2,3.6-2.2,8.8-7.3,12.7-8.3,8.9-2.3,40.8,3,45,0,1.3-.9,1.4-2.3.5-3.6-1.9-2.8-12.4-.8-16.1-.9-6.2-.2-12.7-.7-19-1-1.1,0-2.7.7-2.5-1l126.5-75c9.3-.2,18.7.3,28,0,.2,0,3-2.7,2,0-1.8.6-9.4,7-10,7h-26.5c-.2,1.8,2.3,1,3.5,1,6.2.2,12.3.4,18.5,1,0,.8-.9,1.5-1.5,2-1.7,1.4-18,12.5-19.1,12.7-2.1.4-6.3-1.5-8.9-1.5-7.8,0-16.6,1.7-24.5,1.8.6,1.7,5,2.7,6.6,2.9,6.4,1,14,.5,20.4,1.6-5.3,1.2-28.6,22.1-30.5,22.3-.8,0-3.3-2.5-6-2.8-9.6-1.2-21,.8-30.5,2-.2,2.7,0,1.6,1.5,2,10.1,2.4,20.2,1.7,30.5,2.5-7.5,5.9-16.3,10.4-23.9,16.1h0ZM418.5,391.6c-13.6-5.5-30.1-1.9-44.5-1.2,28.2-19.2,55.3-40,82.4-60.5,5.6-4.2,10.3-11,18-11h25.5c-27.6,23.8-54.2,48.6-81.5,72.8h0ZM503.5,318.9h23.5c1,.9-9.8,14-11,15.5-.9,1.1-9.4,11-10,10.5,0-.8-.3-2.1-1-2.5-3.9-2.5-22.3,2.1-28,.5,3.1-3,24.7-24,26.5-24h0ZM445.5,371.9c-.9,0-.9-1.2.1-2.1,9.7-8.5,20.2-16.2,29.3-25.4,1.9-.7,4.4,1.5,5.5,1.5h24.5l-19.7,22.8c-13.4.6-26.8-.9-39.8,3.2ZM562,320.4l-43.5,74.6c-6.4-4.2-13.4-1.1-19.9-1-8.1.1-16.4.2-24.5-.5,6.5-6.2,11.1-17.8,20-20.5l-2-1.5,30-39.5c-1,1.9,4.5,3,5.5,3,5.6,0,12.7.6,18,0,.4,0,3.9-.9,3.5-2-7.7-1.6-15.7-1.5-23.5-2-1.5-.1-2.9.8-2.5-1.5l6.7-9.4c9.6-.5,21.4-2.4,30.9-1.2,1.4.2,1.7-.5,1.5,1.5h0ZM680,373.9c-14.7-3.2-30.3-.9-45,1l-2-30c12.9,1.9,25.8,2.2,38.9,2.1l8.1,26.9h0ZM671,343.9c-4.7-1.6-8.3,0-12.5,0-8.3.2-16.7-.3-25,0l-2.6-25.1c11-.2,21.4,1.2,32.3,0l2.7,7.5c-.5,1.5-2.3-.5-2.5-.5-6.3,0-23.2-1.2-28,0-.3,0-1.5,1.4-1.5,2l32,.4,5,15.6h0ZM781,375.9h-37.5c-.2,0-3.9.9-3.5,2,14.7,2.5,29.2,2.2,44,.5l36,45.1c-13.3-.5-27,1.4-40.5,2.5-3.9.3-10.2-1.5-12.5,2l32.5,3,24.8-.8,22.7,27.3c.4,2.3-1,1.4-2.5,1.5-14.5,1.1-29.4-.3-44,1-4.7.4-15.4,4.2-18.5,1.5-4.7-9.5-12.8-18.1-17.6-27.4-4.9-9.6-8.1-21.6-13.8-31.2l-31.7-59.8h36.5l25.5,33h0ZM753,339.9l-35.3.9-8.7-13.8c11.2,1.6,22.8,1.2,34,.5l10,12.5h0ZM741.5,325.9c-10.6-1.7-22.2-1.4-32.9-.2l-4.6-6.8c9.6.9,21.2-1.2,30.5,0,4.6.6,5.5,2.9,7,7h0ZM804.4,331.9c-2.2,0-4.2,1.1-6,1.1-3.7,0-15.7-10.7-18.5-14,7.4,1,18.6-1.4,25.5,0,4.2.9,14.3,9.5,17.5,13-6.2.1-12.4-.1-18.5,0ZM851,325.9c-8.2.3-17.3,2-25.6,1.1-5.5-.6-8.2-4.8-13.4-6.1l.5-2c.9.1,1.7,1,2,1,7.2,0,21.9-1.2,28,0,1.6.3,7.3,4.2,8.5,6h0ZM874.5,310.9c-6.4.2-12.7,0-19-1l-414.6-.5c27.8-1.1,55.7-.2,83.5-.5,2.4,0,4.5-1.1,6.9-1.1,111.1-1.2,221.9-2.1,333.1-2l13.4,4.1c.2,1.7-2.3.9-3.5,1h0ZM882,318.4l2-1-1.1-6.5h21.5l16.5,8-31.5,3-7.5-3.5h0ZM891,323.4l50.5-3,11.5,4.5c0,1.5-3.5,1.7-4.6,1.9-13.2,1.9-26.7,2.2-39.8,5.1l-17.6-8.5ZM911,332.9c7.6.4,15.8-2.1,23.4-1,4.7.7,11.7,6.3,17.6,6l-24.4,3.7-16.6-8.7ZM932,344.9l1.5-2,46-5,.5,4,28,5-53.5,6.1c-8.7,1.3-14.7-6.7-22.5-8.1h0ZM1095,388.9c-.5,1.3-5.2,1.7-6.6,1.9-11.9,1.3-24,1.5-35.8,3.8l-91.6-36.7,63.2,7.2c22.9,9.6,47,16.5,70.8,23.8ZM1035,362.9l55.6-8.9,29.4,4.9c-.3,1.8-2.1,1.7-3.4,2.1-8.6,2.9-17.6,4.8-26.2,7.9l-55.5-6.1h0Z"/>
      <path class="st0" d="M447.1,463.2c-1.9-.2-8-1-9.6-1.4-1.4-.4-3.4-2.1-3.9-3.5,16.5-1.3,33.6-3.6,50-1,2-6.2,6.1-11.5,9.9-16.7.9-1.2,1-2.8,3.2-2.3-2.1,6.5-2.9,14-5.2,20.3-2.5,6.6-7.2,12.2-9.8,18.7l68.3-2,2.6,5.6-4.4,4.5-71.6-.5c-3,1.4-6.8,13.2-9.9,16-1.6,1.4-3.9,1.4-4,1.5-.3.3.8,1.9.4,2.9-.5,1.3-2.9,2.9-2.9,5-1-17.7,13-31.5,19.5-47-10.6-.6-22,.9-32.5,0h0Z"/>
      <path class="st0" d="M568.6,425.2c0,3.5-.8,5.6-4.4,6-11.7,1.4-34,.3-45.9-1.2-2.1-.3-5.1-.7-6.6-2.4,0-1.2,6.4-1.5,7.4-1.5,9.7-.5,19.4-.6,29-1,6.5-.3,13.8-2.5,20.5,0h0Z"/>
      <path class="st0" d="M565.6,460.2c1.6,1.8-5.6,38.6-9.5,43l-2.6-1.6c2.5-9.6,3.2-19.8,5.6-29.4.3-1,3.7-15.2,6.5-12h0Z"/>
      <path class="st0" d="M946.6,432.2c-8.7,1.5-18.5,1.4-27-.4-1.1-.2-5.4-1.1-4.9-3,1.1-2.4,13.6-1.7,16.5-1.5,1.3,0,18.8,1.9,15.5,5h0Z"/>
      <path class="st0" d="M1057.4,462c-5.5,1.4-10.4,2.1-15.8-.3-.8-.4-2.7-.1-2-1.9,1.7-4.1,14.8-5.1,18.6-2.6l-.8,4.8h0Z"/>
      <path class="st0" d="M701.1,333.2c1.1.1,2.8,1.6,4.5,1,2,1.5-10,3-11.5,3-7,.2-14.6-1.3-21.5-2-.4-1,2.3-2,2.5-2,7.9,0,18.5-.9,26,0h0Z"/>
      <path class="st0" d="M333.6,448.2c-.3-1.7.4-2.1,1.7-2.8,2.8-1.4,17.5-3.7,18.2.4,1.1,6.3-16.7,3.5-19.9,2.4Z"/>
      <path class="st0" d="M599.1,465.2c.3,0,1.5,1.4,1.5,2-8.8,0-17.6.8-26.4-.1-1-.1-4.7-.4-4.6-1.9,8,1.3,22.4-1.8,29.5,0Z"/>
      <path class="st0" d="M588.1,328.2c.8.1,2.9,1.1,2.5,2h-30c0-.6,1.3-2,1.5-2,7.4,0,19.3-1.1,26,0Z"/>
      <path class="st0" d="M1203.6,72.2l-4-1,.5,3c-3-2.3-3.9-6.6-8.1-7-5.8,1.2-11.7.9-17.4,1.5-3.3.4-7.2,2-10.7,2.1-1,0-3.5-.1-3.3-1.6,5-.6,3.2-5,7-6.5,11.9-4.9,36.7-10,36,9.5h0Z"/>
      <path class="st0" d="M983.9,261.9c-3.6-3.8.7-9.6,3.7-12.2-4.7-3.8-6.3-7.7-4-13.5l12.1,10.4c4.2,3.8-6.6,16.3-9.4,16.4-.8-.2-1.8-.5-2.4-1.1h0Z"/>
      <path class="st0" d="M1010.5,289.1l-4.9.6c-2.2-6.3-7-6.1-11-10-3.2-3.1-5.7-7.1-4-11.5.3-.3,5.5,4.9,7,5.5,4.6,1.5,6.5-1.1,10.5,3.5,3.2,3.7,3.7,7.3,2.3,11.9h0Z"/>
      <path class="st0" d="M1181.4,112.4c.9.5,2.2,5.8,4.9,6.6l18.3,1.7c-3.2,7.7-19.9,9.4-23.9,1.9-.8-1.6-2.4-6.8-3.1-8.9s2.8-1.8,3.8-1.2h0Z"/>
      <path class="st0" d="M1005.6,88.2c-5.4.4-11,1.9-15.5,5l-6.5,16c-1.9-6.8-7.2-12.8-.5-19,4-3.8,14.4-4.1,19.7-3.3.9.2,2.3-1.1,2.8,1.3h0Z"/>
      <path class="st0" d="M1201.6,87.2l2.1-.6-1.1-4.4c6.5-3.7,12.7,6,12.9,11.6.1,2.7-2.6,10.7-6,8-2-5.3-4.1-10.4-7.9-14.5Z"/>
      <path class="st0" d="M1216.6,238.2c1.8,6.5-3.5,7.6-5.8,11.6-1.7,3-2.2,6.7-3,10-.4,1.4.7,2.8-1.6,2.4-9.2-8,0-22.4,10.5-24h0Z"/>
      <path class="st0" d="M980.7,130.1c7.4-2.1,11.2,5.3,9.4,12.2-.4,1.5-7.7,16.2-8.5,10.5-.5-5.3,2.8-8.5,2.1-14-.6-4.4-5.5-5.1-4-10.4l1.1,1.9h0Z"/>
      <path class="st0" d="M1139.6,85.2l-3.8.5.7,1.4c-4.2,3.1-18.1,2.9-20.4-1.9-1-2.2-1.2-9.8,2-9,2.7,4.9,5.8,6.1,11.1,6.9,3.4.5,8.6-1.3,10.4,2.1h0Z"/>
      <path class="st0" d="M996.6,227.2c-.9-1.2,5.5-11.4,4.7-15.7-.7-3.9-8-8.5-4.2-15.3.4,6.3,9.2,9.4,9.6,15.5s-4.7,13.3-10.1,15.5h0Z"/>
      <path class="st0" d="M1078.6,71.2c.8,1.1-5.2,4.7-5.7,5.3-1.7,2.1-1.9,5.8-4.8,7.7-1.1.7-8,4.1-8.6,1.4,3.7-7.3,9.1-18.3,19-14.5h0Z"/>
      <path class="st0" d="M1198.3,274.4c3.3-.9,3.9,2.6,3.1,5.1-.4,1.5-8,13.1-10.3,13.7-5-5.7,1-17.1,7.2-18.8Z"/>
      <path class="st0" d="M1024.3,93.9c-.5.7-2.2,1.1-3.1,1-.8,0-11.9-8.1-12.2-8.7-1.4-2.8,3.8-4.2,6-4.1,4.4.3,13,7.4,9.3,11.8h0Z"/>
      <path class="st0" d="M1199.6,210.2c.7.4,4.2,11.6,4,13.4-.2,1.7-4.8,10.9-6.5,10.6-3.9-3.6.4-8.5.5-12.5,0-1.4-4.2-15.5,1.9-11.4h0Z"/>
      <path class="st0" d="M1199.6,203.2c-2.4,2.3-21.4-6.2-15.5-13,1.9-2.1,4,3.1,6.2,3.8s4.9-.5,6.9,1.1l2.4,8.1h0Z"/>
      <path class="st0" d="M988.9,328.5c2.3-2.7,7.1-3.6,9.2-5.3,2.4-2,1.7-5.7,4.5-7,2.4,4.3-.6,5.4-1.4,8-.5,1.8,1.1,2.5-1,5.1-5.3,6.5-16.3,5.1-11.3-.8h0Z"/>
      <path class="st0" d="M1210.2,155.8c-.5.7-2,2.7-3.1,2.4-3-.6,4.9-12.3,5.3-13.7.9-4-.7-6.4-.7-9.7,0-.8.5-3.8,1.9-3.6,5.8,11,3.4,15.4-3.4,24.6h0Z"/>
      <path class="st0" d="M1005.6,167.2c-6.5,1-13.2-3.2-13.5-10l2.9-1.9c4.2,5.6,10.8,3.7,10.6,11.9Z"/>
      <path class="st0" d="M1214.6,165.2c1.4,3.7,2.5,6.4,2.1,10.5-.2,1.7-1.2,5.8-3,6.5-1.4-5.9-5.2-9.6-1.3-15.7.6-1,0-1.8,2.2-1.3Z"/>
      <path class="st0" d="M1103.5,92.1c-5.3.6-6.8,5.7-12.9,5.1-1.6-1.5,13.4-18.5,12.9-5.1Z"/>
      <path class="st0" d="M1051.6,96.2c-.2,6.5-5.5,11.3-12,11,4.9-4,4.2-14.3,12-11Z"/>
      <path class="st0" d="M1149.6,86.2c.5,2.6-.6,1.7-1.9,2.5-3.6,2-7,3.2-11,1.5,2-4.4,8.8-2.9,13-4Z"/>
      <path class="st0" d="M186.3,83.9c0,.2-2.4,1.3-2.7,2.8l2,.5-3,4c-.9-7.2.2-18.4-7.1-22.4s-6.4-.4-12.5-8.5c-.9-1.2-5.5-2.6-2.4-4.6,5.7-2.2,10.3,3.6,14.1,5,4,1.5,7.2,0,10.5,4.5,2.4,3.2,2.7,15.2,1.1,18.8Z"/>
      <path class="st0" d="M176.6,204.2c.4-3.4-.7-8.1.2-11.3s8.5-10.2,9.2-12.7c1-3.8-2.4-11.6,3.1-16l3.4,14.6c1.5,11.6-6.3,12.2-11.5,18.4-1.9,2.3-1.6,5.7-4.4,7.1h0Z"/>
      <path class="st0" d="M34.3,58c-.7.7-3.5-.7.2,2.7-5.2.8-10.7-7.2-12.2-11.9-.4-1.3.2-3-.1-4-1-2.8-5.3-5.2-2.5-9.5,6.6-1.5,12.8,4.2,13.8,10.5.2,1.5,1.2,11.8.8,12.2Z"/>
      <path class="st0" d="M76.6,35.2c12.6,0,6.9,8.7,9.8,16.4l-2.5,2.6-7.2-5.7s-.1-13.3-.1-13.3Z"/>
      <path class="st0" d="M182.6,302.2v5.3c-7.7,2.1-3.3,7.1-5.9,11.2-1.9,3-15.3,10.5-12.6,2.4,1.7-5.1,8-5.8,10.3-8.2.7-.8.7-2.3,1.4-3.1,1.8-2.3,3.9-2.4,3.8-7l3.1-.6h0Z"/>
      <path class="st0" d="M139.3,71.9c-1.2,1.6-3.9,2.3-5.6,1.2,2.6-7.1-7.1-12.4-2.5-17.8,7.3.5,12.7,10.9,8.1,16.6Z"/>
      <path class="st0" d="M71.6,32.2c.3,1.7-2.4,1.1-3.5,1-8-.5-13-5.8-20.5-7.5,7.4-12.1,16.1,3.2,24,6.5Z"/>
      <path class="st0" d="M173.6,138.2c-1.8,8.4,4.9,13.7,7.2,20.4.5,1.5,1.2,1.2-.7,2.6-7.2-5.1-13.2-13-9.6-22.4l3.1-.6h0Z"/>
      <path class="st0" d="M172.3,233.9c-1.2.9-2.6,1.4-4.1,1.2l-1.7-2.4c-1.1-2.6,8.4-14,9-13.5,2.1,4.5.5,11.6-3.3,14.7Z"/>
      <path class="st0" d="M182.6,350.2c-8.5-3-6.6-11.9-2.5-18,4.9,1,2.1,4.4,2.4,7.5.3,3.8,2,6.6,0,10.5h0Z"/>
      <path class="st0" d="M108.6,62.2l-7.5,8c-2.3,1.7-5.9,3.9-8.8,2.9l-2.6-3.4c1.7-2.2,4.4-1.2,6.7-2.3,3.9-1.8,6.8-5.5,12.3-5.2Z"/>
      <path class="st0" d="M167.3,264.5c.9,1.1.8,2.4,1.6,3.4,1.6,2,6.9,2.3,1.1,6.1-6.3-.6-11-7.5-5.9-12.8.6,1.9,2.4,2.4,3.2,3.3Z"/>
      <path class="st0" d="M190.6,115.2l-1.9-2.4c1.8-4.5.5-9.8,1-14.2.2-1.5-.1-2.9,1.9-3.4,3.8,7.4,3.3,13-1,20h0Z"/>
      <path class="st0" d="M185.6,246.2c6.7-.6,2.9,15.4-1.5,14-4.1-1.3,1.3-11.4,1.5-14Z"/>
      <path class="st0" d="M180.9,280.9c-.4-.4-3.6-6.4-3.2-6.7,4.6-.6,8.4.7,10.9,4.6-.4,3.7-5.4,4.3-7.7,2.1h0Z"/>
      <path class="st0" d="M185.6,229.2c-4.2,2.1-6.9-9-6-10,5.5.4,6.5,5.3,6,10Z"/>
      <path class="st0" d="M592.1,190.2c3,.9.6,5.7.7,7.5.6,14.4,0,27.7-.2,42-.1,5,1,39.8-1.5,40.6h-27.4s.5-90.1.5-90.1h28,0ZM585.6,193.2l-14-1v49c4.8-2.7,9.1-1.2,14,0v-48Z"/>
      <path class="st0" d="M475.6,190.2l-3.5,91h-27.5l1.5-91h29.5ZM473.6,193.2h-15l-3,58h4c-2.4-1.1-.2-11.5.7-12.1,3.7-2.3,8.2,2.1,12.3,1.1v-44.5c0-.3,1.4-1.4,1-2.5h0Z"/>
      <path class="st0" d="M602.6,190.2h28.5c2.5,0,.5,5.9.5,7.5-.5,18.8,1.6,37.9,1.1,57.1-.2,7.4-2.5,15.1-.1,22.8l-1.4,1.6h-28l-1.3-1.5.8-87.6h0ZM623.6,193.2h-16v47c4.7-1.9,10.2-1.2,15,0v-43.5c0-.5,1.6-2.1,1-3.5Z"/>
      <path class="st0" d="M672.6,190.2c.2,20.2-.3,40.4,0,60.5,0,2.4,1,4.6,1.1,6.9.1,8,.9,17.5-2.5,24.5h-28l-1.5-92h31,0ZM666.6,193.2h-20l.6,59h5.4c-6-5-5.7-8.5,3-8l-4-2c.9-1.7.5-2.8,2.5-3.1,2.9-.4,5.8.4,8.5,1.1l-6,4c4.3-.5,9.7,3.8,7,8h4c-.9-19.7-2.1-39.3-1-59h0Z"/>
      <path class="st0" d="M710.1,190.2l1.5,90.4c-1,1.7-26.7,2.7-28.6.7-3-30.1-.9-60.7-1.5-91.1h28.5ZM709.6,252.2l-1.2-58.3c-.9-2.8-4.1-.5-6.3-.6-4.8,0-9.5-.8-14.5-.1l1.1,45.4,1.5,1.5c2.8.9,19.1-1.7,17.2,4.4-.7,2.4-3.3,2.2.2,5.7l-3,2h5s0,0,0,0Z"/>
      <path class="st0" d="M750.6,190.2l2.1,90.4c-.8,3-25.8,1.2-30.1.6.2-.8.7-1.4.6-2.3-1.3-27.2-3.6-56.1-1.6-83.2.2-2-2.2-3.9.5-5.5h28.5,0ZM748.6,192.2h-22l2,48c6.8.9,14.9-.3,21,3l-1-51Z"/>
      <path class="st0" d="M826.1,190.2c2.4,0,3.8-1.9,4.5,3.4l1,86.6-27.3,1.1c-2.7-.5-1.5-19.1-1.6-22.6-.8-20.4-1.5-41.2-2-62,0-2.5-2-4.9.5-6.5,8.3,0,16.7,0,25,0h0ZM822.6,195.2h-20l1,47,3-1-1-3c5.4.7,13.5-2.2,17,3-2.8.3-9.3-1.9-11,1h11s-3,4.5-3,4.5c2.7,1,2.4,3,3.1,5.5h6.9c.2-3,.3-6.1-2-8.5l-2,4.5-3-19.5v-33.5h0Z"/>
      <path class="st0" d="M553.6,190.2l-2,90c-9.6.9-19.7.3-29,2l1-92h30ZM545.6,251.2v-57.4c-1.4-3.7-15.5-.6-19-.6l-2,55.5,2,1,2.6-2.5c.3-.8-3.7-5.5-.6-7.6.4-.3,9.4-1.5,10.5-1.4,6.2.6,5,8.7,3.6,13h3s0,0,0,0Z"/>
      <path class="st0" d="M513.6,190.2l-2,92c-7.1-3-20.6,1-26.5-.5-1.3-.3-1.9-1.1-2.3-2.2l1.8-89.3h29ZM489.6,218.2v-16l-2,10c-.1-3.1.1-6.4,0-9.5,0-1.2.8-3.7-1-3.5-.1,4.2.1,8.4,0,12.5-.1,7.6.2,15.2,0,23-.1,4.2-1.9,8.9-1,13.5,1.9-.7,3.1-2.2,2-4h13s-10.3-1.2-10.3-1.2l-1.7-2.8c6.3-.5,12.8-2.2,19,0-2,3.6,1.5,5.3,1,9-2.1,0-4.1,0-6.2.3-1.1.2-4,.3-3.8,1.7h10.4c0-.1,1.6-2.5,1.6-2.5l.6-55.6c-2-2.9-16.6.9-20.6,0,.2,7.1.3,14.4,0,21.5,0,1.2.8,3.7-1,3.5h0Z"/>
      <path class="st0" d="M790.6,190.2c.2,20.2.5,40.4,1,60.5,0,2.6,1,5.1,1.1,7.9.1,5.1.8,15.6,0,20-.2,1.1-.5,1.9-1.5,2.5h-27.5l-2-91h29,0ZM787.1,192.2h-23.5l1,57.5,2,1.5c-1.2-4.4,1.6-3.7,1.9-4.1,1.6-1.9-1.8-2.1-2-2.4-1.3-4.1,2.5-1.2,3-3.5l-4-1c7.7.3,17.9-1.3,24,4l-.9-48.6-1.5-3.4h0Z"/>
      <path class="st0" d="M592.6,148.2c1.8,1.5,1.2,32.2-.2,36.3-1.1,3.4-6.5.7-9.3.6-6.5-.2-13.1.2-19.5,0l-.7-32.4,2.2-4.6h27.5,0ZM585.6,158.2c-2.8-1-13.1-2.1-14.6,0l.7,24.9c.8,1,12.5,1.9,13.9-.4v-24.5Z"/>
      <path class="st0" d="M475.6,149.2v35.5c-1.7,2.6-3.9.3-6.5.4-2.3.2-4.4,1.1-7,1.1-5.2,0-9.8-2.3-14.9-.2l-1.6-1.4v-34l1.5-1.5h28.5ZM457.6,157.2v27h14.5c3.2-3.2.6-8.3.4-12.5-.2-3,2.1-5.7-.4-7.5l-1.5,2,1-7,2,4v-4.9c-.1,0-16-1.1-16-1.1h0Z"/>
      <path class="st0" d="M631.6,148.2c-.7,4.2.6,8.6.8,12.5,0,1.5-.9,3.2-.9,5,0,6.3,2.3,12.7-.3,19.6-2.4,2.4-5.7,0-8.2,0-6.8,0-13.5,1-20.4-.1v-36c1,.3,2.2-1,2.5-1h26.5ZM625.6,184.2c-2.5-7.6.3-17.2-1-24.5-.2-1.1-.5-1.9-1.5-2.5h-14.5l-1,27h18Z"/>
      <path class="st0" d="M750.6,185.2h-25.5c-.5,0-2.1,1.6-3.5,1-1.2-1.3-1.5-30.8-1.1-34.6.2-1.5.1-2.6,1.5-3.4h27l1.5,1.5v35.5h0ZM730.1,183.2c5.9-.6,12.5.4,18.5,0l-1-11-2,7-2.4-21.1-14.6-.5-1.9,26.6c1.5.6,2.8-.9,3.5-1h0Z"/>
      <path class="st0" d="M643.1,148.2h27l1.5,1.5v35c-1.7,2.4-4.6.5-7.5.4-5.3-.1-10.8-.1-16.1,0-2.5,0-4.8,2-6.5-.4v-35l1.5-1.5h0ZM662.6,157.2h-18c1.9,8.8,1.2,18.2,0,27l19-.4,2-1.1c-2.2-8.4-3.7-16.7-3-25.4h0Z"/>
      <path class="st0" d="M525.1,148.2h27c3.6,4.6.6,12.6.6,17.6,0,6.4,3.3,15-2.6,20.4h-25c-1.4-.9-1.4-2-1.5-3.4-1-8.3.9-16.9,1.2-25.1.1-3.5-2.6-7.2.4-9.5h0ZM527.1,184.2h18.5c-1.8-9.2-.4-17.9,1-27h-20c-.8,1,2,6.8,1.9,8.5,0,1.4-1.6,2.5-1.8,4-.5,3.1-1.7,10.3-.9,12.8l1.3,1.7h0Z"/>
      <path class="st0" d="M789.6,148.2l.5,37.1c-.3.6-10.9-.1-13.1-.1-5.1.1-9.8,1.7-15.5,0,1-10.9-2.3-22.8-1.1-33.5.2-1.5.1-2.6,1.5-3.4h27.5ZM763.6,157.2v26h25c.3-5.3.9-11.9-6-12l-2,4c-1.6-5.8-3.4-10.9-2.4-17l-14.6-1h0Z"/>
      <path class="st0" d="M829.6,186.2c-1.1.4-2.2-1-2.5-1h-26.5l-1-37h25.5c.6,0,4.5-1.4,4.5,1.5v36.5ZM822.6,183.2c-1.8-8.6,0-16.5.6-25-1.8-2.5-11.1-.3-14.1-.2-1.1,0-6.5-1.9-6.5.7v25.5c1.4.6,3-1,3.5-1h16.5,0Z"/>
      <path class="st0" d="M681.6,185.2c-.3-10.5-2.3-23.2-1-33.6.2-1.5.1-2.6,1.5-3.4h27l1.5,1.5v35l-1.5,1.3c-.4,0-.8-.8-1-.8h-26.5ZM707.6,157.2h-19.5c-2.3,1.4-.5,2.1-.5,2.5v22c0,.2-.8.6-.8,1l1.3,1.5h19c3,0,.5-8.6.5-10.5-.2-5.5.2-11.1,0-16.5h0Z"/>
      <path class="st0" d="M487.1,148.2h26l1.5,3.4-1.5,33.6-1.2.9c-8.8-2.8-19.1,3-27.4-1.4v-31c0-.9,1.5-4.6,2.5-5.5h0ZM511.6,184.2v-24.5c0-.2,1.9-1.3.5-1.5l-2.5,2c-.4-4.5-3.3-1.7-6.5-1.9-4.8-.3-10.5-3.1-14,.9l-1.5-2c-1.5,3.2,1.9,4.2,2,4.7.9,3.8-.1,18.7,2.3,21.1l19.8,1.2h0Z"/>
      <path class="st0" d="M1113.3,239.5c1.1.9,1.9,4.2,2.4,4.5.3.2,1.7-.8,2.8-.3,3.6,1.8,14.5,10.7,8.1,14-5.3,2.7-10.1-11-11.9-12.1-1.3-.8-6.4,3-10.1-1.9-2.6-3.4-2.3-7.7-1-11.5,3.3-.4,3.1,3.9,5,5.5,1.4,1.2,3.6,1,4.7,1.8h0Z"/>
      <path class="st0" d="M1096.6,131.2c3.3,1.1,1.2,4.2,1.5,6.1.9,5,6.7,6.8,9,10.9.9,3.7-9.7,2.7-12.4-3.6s1.2-7.5,1.9-13.4h0Z"/>
      <path class="st0" d="M1120.6,151.2c.7,4.2,1.9,8.8.6,13.1-.6,1.9-4.9,8-7.6,6.9-1.4-1.4,3.6-16.5,4.8-18.7.6-1.1,0-1.7,2.2-1.3h0Z"/>
      <path class="st0" d="M1116.6,211.2c11,3.2,6.4,12.8-.5,18l-2.2-2.5c2.9-5.3,4.7-9.5,2.7-15.5Z"/>
      <path class="st0" d="M1115.6,286.2c1.5,1.3-7.3,12.2-10.5,7s6.1-9.2,10.5-7Z"/>
      <path class="st0" d="M1120.6,320.2c-1.3-5.5,2-5.1,4-7.5,1.5-1.8,2.2-4.6,4-5.5.8,6.8-.1,12.6-8,13h0Z"/>
      <path class="st0" d="M1115.3,183.9c-.3.4-2.3,1.7-2.7,1.8-6.3,1.9,1-10,3.5-9.5,2.9.6.5,6.2-.8,7.7h0Z"/>
      <path class="st0" d="M1117.1,274.2c3.2-.7,4.7,9.6,1,11-1.2,0-3.6-10.4-1-11Z"/>
      <path class="st0" d="M230.6,170.2c7.7,1.9,1.4,8.8,1.2,12.7-.2,3.6,7.3,6.9,2.2,11.3-11.5-5.8-7.7-14.6-3.5-24h0Z"/>
      <path class="st0" d="M238.1,127.5c2,.2,11.9,14.8,6,17.7-.9.2-6.3-6.9-6.9-8-1.6-2.8-4.6-10.1,1-9.7Z"/>
      <path class="st0" d="M236.6,234.2h-5.3c-3.6-5.6-6.9-12.4-1.2-18l6.5,18Z"/>
      <path class="st0" d="M246.3,207.9c-.3.6-3.4,2.3-3.2,4.3-3.7-1.6-.8-15.5,3.5-17,.6,4.4,1.6,8.4-.3,12.7h0Z"/>
      <path class="st0" d="M243.6,241.2c.8,7.6-14.5,8.3-12.4,1l12.4-1Z"/>
      <path class="st0" d="M228.6,285.2l-3-.5c1.1-3.3,1.1-6.8,1.9-10.1.3-1.2.6-4.4,2.1-4.4.7,5.7.8,9.5-1,15Z"/>
      <path class="st0" d="M244.6,151.2l1,10c-6.4,0-7.2-9.1-1-10Z"/>
      <path class="st0" d="M233.5,298.3l4.1,10.9c-5.7-.3-6.4-6.4-7-11h2.9Z"/>
      <path class="st0" d="M65.6,228.2c-1.4,5.4-1.4,11.2-3,16.5-.4,1.5.5,1.7-2,1.5-.7-4.7-3-8.3-1.8-13.3.7-3,3.7-6.5,6.8-4.7h0Z"/>
      <path class="st0" d="M73.6,227.2c-2.6,2.5-2.1-5.3-1.9-6.4.3-1.9,1.8-3.3,1.8-5,0-2.9-2.8-6.1-.9-9.5,8.5,5.6,4.5,13.7,1,21h0Z"/>
      <path class="st0" d="M71.6,169.2l8.5-19c6,7-1.4,16.5-8.5,19Z"/>
      <path class="st0" d="M60.3,270.5c3.8,3.2,5.1,7.8,4.3,12.7-5.3.6-4.3-3.8-5.8-6.7s-4.5-3.9-3.2-8.3c1.4.9,3.5,1.3,4.7,2.3h0Z"/>
      <path class="st0" d="M65.6,252.2l11.5,3.9,1.3,1.5c-3.8,8.1-12.7,2-12.8-5.5Z"/>
      <path class="st0" d="M61.1,188.2c6.3-.9,12.5,10.7,6,15-2.2-2.2-1.4-5.5-2.7-8.3-.6-1.2-6.8-6.2-3.3-6.7Z"/>
      <path class="st0" d="M49.1,315.2c-.7,0-2.7,2.1-3.5.5,7.9-3,18.9-4.9,27.5-5.5,1.2,0,5.5-.8,5.5,1l-8,2c11.2.8,20.9,1.1,32-1-1.6,3.2-22,7-22,8.5,3.6,0,7.1,2.4,10.6,2.5,2.7.1,5.2-.9,7.9-1.1,1.1,0,3.8-.6,3.5,1l-20,8c1.7,2.6,7.1,2.2,10,3,3.4,3.7-11.3,3-12.5,3-4-.2-10.2-1.9-14-1.8-5.7.2-12.7,3.8-19,3.9-1.1,0-2.8.6-2.5-1l38-11-20.5-2.4-24.5,3.4c1.7-2.5,6.3-3.3,9.2-4.3,8.4-2.7,17.1-4.9,25.8-6.7l-7.5-2c-5.3.3-10.7-.4-16,0h0Z"/>
      <path class="st0" d="M12.6,236.2c-1.9-1.7-3.8,4.5-3.9,5.6-1.3,10-.9,24.5,5.9,32.4.6-5.3.2-35.9-2-38h0Z"/>
      <path class="st0" d="M67.4,108.9c-2.7,3.1-18.5,2.8-17.7-2.1.6-3.8,10.6-2.5,13.4-2.6,2.1,0,5.2-2.4,5.3,1.3,0,.4-.8,3.2-1.1,3.5h0Z"/>
      <path class="st0" d="M16.6,213.2c-1.8,1.2-8.5-19.9-2.4-20.9,5.3-.9,5.7,17.7,2.4,20.9Z"/>
      <path class="st0" d="M36.6,99.2c-2.4,8.4-9.9,5.3-16,3l1.5-2.6,14.5-.4Z"/>
      <path class="st0" d="M61.6,95.2c-4.5,2.7-8.9,2.1-14,2l.4-4.1c1.3-1.9,16.2-1.7,13.6,2Z"/>
      <path class="st0" d="M79.4,99.4c.8,1,1.2,5.3,3.2,6.7-8.2,2.5-11,.3-9-8,1.6,0,4.8,0,5.8,1.3h0Z"/>
      <path class="st0" d="M100.6,109.2c-1.8,3.8-13.5,6.7-16,4-1.4-1.6.5-1.7,1.3-2.2,4.4-2.8,9.8-1.5,14.7-1.7Z"/>
      <path class="st0" d="M270.4,152.1c-3.8,2.2-10.6-6.6-6.7-10.8,2.8-2.2,8.9,6.1,8.8,7.2,0,.2-1.8,3.4-2,3.6h0Z"/>
      <path class="st0" d="M269.6,158.2l3,16c-6.3-.8-11.8-14.7-3-16Z"/>
      <path class="st0" d="M261.6,219.2c2-3.5,6.5-12.4,11-7.5-3.6,3.7-4.6,10.3-11,7.5Z"/>
      <path class="st0" d="M269.6,198.2c-1.7,3.5-5.4,4.4-9,4l.6-4.1c3-1.4,5.4-.8,8.4.1Z"/>
      <path class="st0" d="M278.6,178.2c-1.1,4.9-1.7,8.2-7,10l1.1-4.4,5.9-5.6h0Z"/>
      <path class="st0" d="M506.1,359.2l-1-2c1.5-2.1,29.1-2.9,30.5-1,.4.9-.9,3-1.5,3h-28Z"/>
      <path class="st0" d="M453.6,358.2c-10.8,3.5-22,1.6-33,1,.6-2,3.1-2.3,4.8-2.7,5-1.2,16.6-2.3,21.7-2.3,1.6,0,8.2,1.7,6.5,4h0Z"/>
      <path class="st0" d="M455.1,334.2c-.4,0-1.8-1.6-1.5-2,8.1-1.2,16.8-3.3,25-1,.3.4-2.3,3-2.5,3-4.9,0-17.2,1-21,0Z"/>
    </g>
  </g>
</svg>